<svg width="524" height="380" viewBox="0 0 524 380" fill="none" xmlns="http://www.w3.org/2000/svg">
<rect x="4" y="4" width="515.117" height="372" rx="6" stroke="white" stroke-width="8"/>
<path d="M1.04932 88.8313H519.231" stroke="white" stroke-width="8"/>
<path d="M169.564 115.443C169.564 113.786 170.907 112.443 172.564 112.443H210.98C212.636 112.443 213.98 113.786 213.98 115.443V153.859C213.98 155.516 212.636 156.859 210.98 156.859H172.564C170.907 156.859 169.564 155.516 169.564 153.859V115.443Z" fill="white"/>
<path d="M238.656 115.443C238.656 113.786 239.999 112.443 241.656 112.443H280.071C281.728 112.443 283.071 113.786 283.071 115.443V153.859C283.071 155.516 281.728 156.859 280.071 156.859H241.656C239.999 156.859 238.656 155.516 238.656 153.859V115.443Z" fill="white"/>
<path d="M307.746 115.443C307.746 113.786 309.089 112.443 310.746 112.443H349.162C350.819 112.443 352.162 113.786 352.162 115.443V153.859C352.162 155.516 350.819 156.859 349.162 156.859H310.746C309.089 156.859 307.746 155.516 307.746 153.859V115.443Z" fill="white"/>
<path d="M376.837 115.443C376.837 113.786 378.18 112.443 379.837 112.443H418.252C419.909 112.443 421.252 113.786 421.252 115.443V153.859C421.252 155.516 419.909 156.859 418.252 156.859H379.837C378.18 156.859 376.837 155.516 376.837 153.859V115.443Z" fill="white"/>
<path d="M445.928 115.443C445.928 113.786 447.271 112.443 448.928 112.443H487.343C489 112.443 490.343 113.786 490.343 115.443V153.859C490.343 155.516 489 156.859 487.343 156.859H448.928C447.271 156.859 445.928 155.516 445.928 153.859V115.443Z" fill="white"/>
<path d="M31.3823 184.534C31.3823 182.877 32.7255 181.534 34.3823 181.534H72.7979C74.4548 181.534 75.7979 182.877 75.7979 184.534V222.95C75.7979 224.607 74.4548 225.95 72.7979 225.95H34.3823C32.7255 225.95 31.3823 224.607 31.3823 222.95V184.534Z" fill="white"/>
<path d="M100.474 184.534C100.474 182.877 101.817 181.534 103.474 181.534H141.889C143.546 181.534 144.889 182.877 144.889 184.534V222.95C144.889 224.607 143.546 225.95 141.889 225.95H103.474C101.817 225.95 100.474 224.607 100.474 222.95V184.534Z" fill="white"/>
<path d="M169.564 184.534C169.564 182.877 170.907 181.534 172.564 181.534H210.98C212.636 181.534 213.98 182.877 213.98 184.534V222.95C213.98 224.607 212.636 225.95 210.98 225.95H172.564C170.907 225.95 169.564 224.607 169.564 222.95V184.534Z" fill="white"/>
<path d="M238.656 184.534C238.656 182.877 239.999 181.534 241.656 181.534H280.071C281.728 181.534 283.071 182.877 283.071 184.534V222.95C283.071 224.607 281.728 225.95 280.071 225.95H241.656C239.999 225.95 238.656 224.607 238.656 222.95V184.534Z" fill="white"/>
<path d="M307.746 184.534C307.746 182.877 309.089 181.534 310.746 181.534H349.162C350.819 181.534 352.162 182.877 352.162 184.534V222.95C352.162 224.607 350.819 225.95 349.162 225.95H310.746C309.089 225.95 307.746 224.607 307.746 222.95V184.534Z" fill="white"/>
<path d="M376.837 184.534C376.837 182.877 378.18 181.534 379.837 181.534H418.252C419.909 181.534 421.252 182.877 421.252 184.534V222.95C421.252 224.607 419.909 225.95 418.252 225.95H379.837C378.18 225.95 376.837 224.607 376.837 222.95V184.534Z" fill="white"/>
<path d="M445.928 184.534C445.928 182.877 447.271 181.534 448.928 181.534H487.343C489 181.534 490.343 182.877 490.343 184.534V222.95C490.343 224.607 489 225.95 487.343 225.95H448.928C447.271 225.95 445.928 224.607 445.928 222.95V184.534Z" fill="white"/>
<path d="M31.3823 248.69C31.3823 247.033 32.7255 245.69 34.3823 245.69H72.7979C74.4548 245.69 75.7979 247.033 75.7979 248.69V287.106C75.7979 288.762 74.4548 290.106 72.7979 290.106H34.3823C32.7255 290.106 31.3823 288.762 31.3823 287.106V248.69Z" fill="white"/>
<path d="M100.474 248.69C100.474 247.033 101.817 245.69 103.474 245.69H141.889C143.546 245.69 144.889 247.033 144.889 248.69V287.106C144.889 288.762 143.546 290.106 141.889 290.106H103.474C101.817 290.106 100.474 288.762 100.474 287.106V248.69Z" fill="white"/>
<path d="M169.564 248.69C169.564 247.033 170.907 245.69 172.564 245.69H210.98C212.636 245.69 213.98 247.033 213.98 248.69V287.106C213.98 288.762 212.636 290.106 210.98 290.106H172.564C170.907 290.106 169.564 288.762 169.564 287.106V248.69Z" fill="white"/>
<path d="M238.656 248.69C238.656 247.033 239.999 245.69 241.656 245.69H280.071C281.728 245.69 283.071 247.033 283.071 248.69V287.106C283.071 288.762 281.728 290.106 280.071 290.106H241.656C239.999 290.106 238.656 288.762 238.656 287.106V248.69Z" fill="white"/>
<path d="M307.746 248.69C307.746 247.033 309.089 245.69 310.746 245.69H349.162C350.819 245.69 352.162 247.033 352.162 248.69V287.106C352.162 288.762 350.819 290.106 349.162 290.106H310.746C309.089 290.106 307.746 288.762 307.746 287.106V248.69Z" fill="white"/>
<path d="M376.837 248.69C376.837 247.033 378.18 245.69 379.837 245.69H418.252C419.909 245.69 421.252 247.033 421.252 248.69V287.106C421.252 288.762 419.909 290.106 418.252 290.106H379.837C378.18 290.106 376.837 288.762 376.837 287.106V248.69Z" fill="white"/>
<path d="M445.928 248.69C445.928 247.033 447.271 245.69 448.928 245.69H487.343C489 245.69 490.343 247.033 490.343 248.69V287.106C490.343 288.762 489 290.106 487.343 290.106H448.928C447.271 290.106 445.928 288.762 445.928 287.106V248.69Z" fill="white"/>
<path d="M31.3823 317.781C31.3823 316.124 32.7255 314.781 34.3823 314.781H72.7979C74.4548 314.781 75.7979 316.124 75.7979 317.781V356.197C75.7979 357.853 74.4548 359.197 72.7979 359.197H34.3823C32.7255 359.197 31.3823 357.853 31.3823 356.197V317.781Z" fill="white"/>
<path d="M100.474 317.781C100.474 316.124 101.817 314.781 103.474 314.781H141.889C143.546 314.781 144.889 316.124 144.889 317.781V356.197C144.889 357.853 143.546 359.197 141.889 359.197H103.474C101.817 359.197 100.474 357.853 100.474 356.197V317.781Z" fill="white"/>
<path d="M169.564 317.781C169.564 316.124 170.907 314.781 172.564 314.781H210.98C212.636 314.781 213.98 316.124 213.98 317.781V356.197C213.98 357.853 212.636 359.197 210.98 359.197H172.564C170.907 359.197 169.564 357.853 169.564 356.197V317.781Z" fill="white"/>
<path d="M238.656 317.781C238.656 316.124 239.999 314.781 241.656 314.781H280.071C281.728 314.781 283.071 316.124 283.071 317.781V356.197C283.071 357.853 281.728 359.197 280.071 359.197H241.656C239.999 359.197 238.656 357.853 238.656 356.197V317.781Z" fill="white"/>
<rect x="172.702" y="147.815" width="43.4389" height="8.68777" rx="4.34389" transform="rotate(-45 172.702 147.815)" fill="#F98282"/>
<rect x="178.846" y="117.1" width="43.4389" height="8.68777" rx="4.34389" transform="rotate(45 178.846 117.1)" fill="#F98282"/>
<rect x="242.204" y="147.815" width="43.4389" height="8.68777" rx="4.34389" transform="rotate(-45 242.204 147.815)" fill="#F98282"/>
<rect x="248.347" y="117.1" width="43.4389" height="8.68777" rx="4.34389" transform="rotate(45 248.347 117.1)" fill="#F98282"/>
<rect x="310.838" y="147.815" width="43.4389" height="8.68777" rx="4.34389" transform="rotate(-45 310.838 147.815)" fill="#F98282"/>
<rect x="316.981" y="117.1" width="43.4389" height="8.68777" rx="4.34389" transform="rotate(45 316.981 117.1)" fill="#F98282"/>
<rect x="380.339" y="147.815" width="43.4389" height="8.68777" rx="4.34389" transform="rotate(-45 380.339 147.815)" fill="#F98282"/>
<rect x="386.483" y="117.1" width="43.4389" height="8.68777" rx="4.34389" transform="rotate(45 386.483 117.1)" fill="#F98282"/>
<rect x="448.974" y="147.815" width="43.4389" height="8.68777" rx="4.34389" transform="rotate(-45 448.974 147.815)" fill="#F98282"/>
<rect x="455.117" y="117.1" width="43.4389" height="8.68777" rx="4.34389" transform="rotate(45 455.117 117.1)" fill="#F98282"/>
<rect x="35.4346" y="217.318" width="43.4389" height="8.68777" rx="4.34389" transform="rotate(-45 35.4346 217.318)" fill="#F98282"/>
<rect x="41.5781" y="186.602" width="43.4389" height="8.68777" rx="4.34389" transform="rotate(45 41.5781 186.602)" fill="#F98282"/>
<rect x="104.068" y="217.318" width="43.4389" height="8.68777" rx="4.34389" transform="rotate(-45 104.068 217.318)" fill="#F98282"/>
<rect x="110.212" y="186.602" width="43.4389" height="8.68777" rx="4.34389" transform="rotate(45 110.212 186.602)" fill="#F98282"/>
<rect x="173.571" y="217.318" width="43.4389" height="8.68777" rx="4.34389" transform="rotate(-45 173.571 217.318)" fill="#F98282"/>
<rect x="179.714" y="186.602" width="43.4389" height="8.68777" rx="4.34389" transform="rotate(45 179.714 186.602)" fill="#F98282"/>
<path d="M114.844 53.7697V57.6697H98.5845V36.6697H114.454V40.5697H103.414V45.1297H113.164V48.9097H103.414V53.7697H114.844ZM128.191 41.2897C130.191 41.2897 131.801 41.8897 133.021 43.0897C134.261 44.2897 134.881 46.0697 134.881 48.4297V57.6697H130.201V49.1497C130.201 47.8697 129.921 46.9197 129.361 46.2997C128.801 45.6597 127.991 45.3397 126.931 45.3397C125.751 45.3397 124.811 45.7097 124.111 46.4497C123.411 47.1697 123.061 48.2497 123.061 49.6897V57.6697H118.381V41.5297H122.851V43.4197C123.471 42.7397 124.241 42.2197 125.161 41.8597C126.081 41.4797 127.091 41.2897 128.191 41.2897ZM155.739 35.4097V57.6697H151.269V55.8097C150.109 57.2097 148.429 57.9097 146.229 57.9097C144.709 57.9097 143.329 57.5697 142.089 56.8897C140.869 56.2097 139.909 55.2397 139.209 53.9797C138.509 52.7197 138.159 51.2597 138.159 49.5997C138.159 47.9397 138.509 46.4797 139.209 45.2197C139.909 43.9597 140.869 42.9897 142.089 42.3097C143.329 41.6297 144.709 41.2897 146.229 41.2897C148.289 41.2897 149.899 41.9397 151.059 43.2397V35.4097H155.739ZM147.039 54.0697C148.219 54.0697 149.199 53.6697 149.979 52.8697C150.759 52.0497 151.149 50.9597 151.149 49.5997C151.149 48.2397 150.759 47.1597 149.979 46.3597C149.199 45.5397 148.219 45.1297 147.039 45.1297C145.839 45.1297 144.849 45.5397 144.069 46.3597C143.289 47.1597 142.899 48.2397 142.899 49.5997C142.899 50.9597 143.289 52.0497 144.069 52.8697C144.849 53.6697 145.839 54.0697 147.039 54.0697ZM176.247 57.9097C174.547 57.9097 173.017 57.5597 171.657 56.8597C170.317 56.1397 169.267 55.1497 168.507 53.8897C167.747 52.6297 167.367 51.1997 167.367 49.5997C167.367 47.9997 167.747 46.5697 168.507 45.3097C169.267 44.0497 170.317 43.0697 171.657 42.3697C173.017 41.6497 174.547 41.2897 176.247 41.2897C177.947 41.2897 179.467 41.6497 180.807 42.3697C182.147 43.0697 183.197 44.0497 183.957 45.3097C184.717 46.5697 185.097 47.9997 185.097 49.5997C185.097 51.1997 184.717 52.6297 183.957 53.8897C183.197 55.1497 182.147 56.1397 180.807 56.8597C179.467 57.5597 177.947 57.9097 176.247 57.9097ZM176.247 54.0697C177.447 54.0697 178.427 53.6697 179.187 52.8697C179.967 52.0497 180.357 50.9597 180.357 49.5997C180.357 48.2397 179.967 47.1597 179.187 46.3597C178.427 45.5397 177.447 45.1297 176.247 45.1297C175.047 45.1297 174.057 45.5397 173.277 46.3597C172.497 47.1597 172.107 48.2397 172.107 49.5997C172.107 50.9597 172.497 52.0497 173.277 52.8697C174.057 53.6697 175.047 54.0697 176.247 54.0697ZM193.355 41.8897H197.495V45.4897H193.475V57.6697H188.795V45.4897H186.305V41.8897H188.795V41.1697C188.795 39.3297 189.335 37.8697 190.415 36.7897C191.515 35.7097 193.055 35.1697 195.035 35.1697C195.735 35.1697 196.395 35.2497 197.015 35.4097C197.655 35.5497 198.185 35.7597 198.605 36.0397L197.375 39.4297C196.835 39.0497 196.205 38.8597 195.485 38.8597C194.065 38.8597 193.355 39.6397 193.355 41.1997V41.8897ZM218.733 56.8897C218.273 57.2297 217.703 57.4897 217.023 57.6697C216.363 57.8297 215.663 57.9097 214.923 57.9097C213.003 57.9097 211.513 57.4197 210.453 56.4397C209.413 55.4597 208.893 54.0197 208.893 52.1197V45.4897H206.403V41.8897H208.893V37.9597H213.573V41.8897H217.593V45.4897H213.573V52.0597C213.573 52.7397 213.743 53.2697 214.083 53.6497C214.443 54.0097 214.943 54.1897 215.583 54.1897C216.323 54.1897 216.953 53.9897 217.473 53.5897L218.733 56.8897ZM231.17 41.2897C233.17 41.2897 234.78 41.8897 236 43.0897C237.24 44.2897 237.86 46.0697 237.86 48.4297V57.6697H233.18V49.1497C233.18 47.8697 232.9 46.9197 232.34 46.2997C231.78 45.6597 230.97 45.3397 229.91 45.3397C228.73 45.3397 227.79 45.7097 227.09 46.4497C226.39 47.1697 226.04 48.2497 226.04 49.6897V57.6697H221.36V35.4097H226.04V43.2097C226.66 42.5897 227.41 42.1197 228.29 41.7997C229.17 41.4597 230.13 41.2897 231.17 41.2897ZM258.088 49.6597C258.088 49.7197 258.058 50.1397 257.998 50.9197H245.788C246.008 51.9197 246.528 52.7097 247.348 53.2897C248.168 53.8697 249.188 54.1597 250.408 54.1597C251.248 54.1597 251.988 54.0397 252.628 53.7997C253.288 53.5397 253.898 53.1397 254.458 52.5997L256.948 55.2997C255.428 57.0397 253.208 57.9097 250.288 57.9097C248.468 57.9097 246.858 57.5597 245.458 56.8597C244.058 56.1397 242.978 55.1497 242.218 53.8897C241.458 52.6297 241.078 51.1997 241.078 49.5997C241.078 48.0197 241.448 46.5997 242.188 45.3397C242.948 44.0597 243.978 43.0697 245.278 42.3697C246.598 41.6497 248.068 41.2897 249.688 41.2897C251.268 41.2897 252.698 41.6297 253.978 42.3097C255.258 42.9897 256.258 43.9697 256.978 45.2497C257.718 46.5097 258.088 47.9797 258.088 49.6597ZM249.718 44.8297C248.658 44.8297 247.768 45.1297 247.048 45.7297C246.328 46.3297 245.888 47.1497 245.728 48.1897H253.678C253.518 47.1697 253.078 46.3597 252.358 45.7597C251.638 45.1397 250.758 44.8297 249.718 44.8297ZM276.93 58.0297C275.27 58.0297 273.66 57.8097 272.1 57.3697C270.56 56.9097 269.32 56.3197 268.38 55.5997L270.03 51.9397C270.93 52.5997 272 53.1297 273.24 53.5297C274.48 53.9297 275.72 54.1297 276.96 54.1297C278.34 54.1297 279.36 53.9297 280.02 53.5297C280.68 53.1097 281.01 52.5597 281.01 51.8797C281.01 51.3797 280.81 50.9697 280.41 50.6497C280.03 50.3097 279.53 50.0397 278.91 49.8397C278.31 49.6397 277.49 49.4197 276.45 49.1797C274.85 48.7997 273.54 48.4197 272.52 48.0397C271.5 47.6597 270.62 47.0497 269.88 46.2097C269.16 45.3697 268.8 44.2497 268.8 42.8497C268.8 41.6297 269.13 40.5297 269.79 39.5497C270.45 38.5497 271.44 37.7597 272.76 37.1797C274.1 36.5997 275.73 36.3097 277.65 36.3097C278.99 36.3097 280.3 36.4697 281.58 36.7897C282.86 37.1097 283.98 37.5697 284.94 38.1697L283.44 41.8597C281.5 40.7597 279.56 40.2097 277.62 40.2097C276.26 40.2097 275.25 40.4297 274.59 40.8697C273.95 41.3097 273.63 41.8897 273.63 42.6097C273.63 43.3297 274 43.8697 274.74 44.2297C275.5 44.5697 276.65 44.9097 278.19 45.2497C279.79 45.6297 281.1 46.0097 282.12 46.3897C283.14 46.7697 284.01 47.3697 284.73 48.1897C285.47 49.0097 285.84 50.1197 285.84 51.5197C285.84 52.7197 285.5 53.8197 284.82 54.8197C284.16 55.7997 283.16 56.5797 281.82 57.1597C280.48 57.7397 278.85 58.0297 276.93 58.0297ZM304.641 49.6597C304.641 49.7197 304.611 50.1397 304.551 50.9197H292.341C292.561 51.9197 293.081 52.7097 293.901 53.2897C294.721 53.8697 295.741 54.1597 296.961 54.1597C297.801 54.1597 298.541 54.0397 299.181 53.7997C299.841 53.5397 300.451 53.1397 301.011 52.5997L303.501 55.2997C301.981 57.0397 299.761 57.9097 296.841 57.9097C295.021 57.9097 293.411 57.5597 292.011 56.8597C290.611 56.1397 289.531 55.1497 288.771 53.8897C288.011 52.6297 287.631 51.1997 287.631 49.5997C287.631 48.0197 288.001 46.5997 288.741 45.3397C289.501 44.0597 290.531 43.0697 291.831 42.3697C293.151 41.6497 294.621 41.2897 296.241 41.2897C297.821 41.2897 299.251 41.6297 300.531 42.3097C301.811 42.9897 302.811 43.9697 303.531 45.2497C304.271 46.5097 304.641 47.9797 304.641 49.6597ZM296.271 44.8297C295.211 44.8297 294.321 45.1297 293.601 45.7297C292.881 46.3297 292.441 47.1497 292.281 48.1897H300.231C300.071 47.1697 299.631 46.3597 298.911 45.7597C298.191 45.1397 297.311 44.8297 296.271 44.8297ZM328.426 41.2897C330.446 41.2897 332.046 41.8897 333.226 43.0897C334.426 44.2697 335.026 46.0497 335.026 48.4297V57.6697H330.346V49.1497C330.346 47.8697 330.076 46.9197 329.536 46.2997C329.016 45.6597 328.266 45.3397 327.286 45.3397C326.186 45.3397 325.316 45.6997 324.676 46.4197C324.036 47.1197 323.716 48.1697 323.716 49.5697V57.6697H319.036V49.1497C319.036 46.6097 318.016 45.3397 315.976 45.3397C314.896 45.3397 314.036 45.6997 313.396 46.4197C312.756 47.1197 312.436 48.1697 312.436 49.5697V57.6697H307.756V41.5297H312.226V43.3897C312.826 42.7097 313.556 42.1897 314.416 41.8297C315.296 41.4697 316.256 41.2897 317.296 41.2897C318.436 41.2897 319.466 41.5197 320.386 41.9797C321.306 42.4197 322.046 43.0697 322.606 43.9297C323.266 43.0897 324.096 42.4397 325.096 41.9797C326.116 41.5197 327.226 41.2897 328.426 41.2897ZM355.207 49.6597C355.207 49.7197 355.177 50.1397 355.117 50.9197H342.907C343.127 51.9197 343.647 52.7097 344.467 53.2897C345.287 53.8697 346.307 54.1597 347.527 54.1597C348.367 54.1597 349.107 54.0397 349.747 53.7997C350.407 53.5397 351.017 53.1397 351.577 52.5997L354.067 55.2997C352.547 57.0397 350.327 57.9097 347.407 57.9097C345.587 57.9097 343.977 57.5597 342.577 56.8597C341.177 56.1397 340.097 55.1497 339.337 53.8897C338.577 52.6297 338.197 51.1997 338.197 49.5997C338.197 48.0197 338.567 46.5997 339.307 45.3397C340.067 44.0597 341.097 43.0697 342.397 42.3697C343.717 41.6497 345.187 41.2897 346.807 41.2897C348.387 41.2897 349.817 41.6297 351.097 42.3097C352.377 42.9897 353.377 43.9697 354.097 45.2497C354.837 46.5097 355.207 47.9797 355.207 49.6597ZM346.837 44.8297C345.777 44.8297 344.887 45.1297 344.167 45.7297C343.447 46.3297 343.007 47.1497 342.847 48.1897H350.797C350.637 47.1697 350.197 46.3597 349.477 45.7597C348.757 45.1397 347.877 44.8297 346.837 44.8297ZM363.753 57.9097C362.413 57.9097 361.103 57.7497 359.823 57.4297C358.543 57.0897 357.523 56.6697 356.763 56.1697L358.323 52.8097C359.043 53.2697 359.913 53.6497 360.933 53.9497C361.953 54.2297 362.953 54.3697 363.933 54.3697C365.913 54.3697 366.903 53.8797 366.903 52.8997C366.903 52.4397 366.633 52.1097 366.093 51.9097C365.553 51.7097 364.723 51.5397 363.603 51.3997C362.283 51.1997 361.193 50.9697 360.333 50.7097C359.473 50.4497 358.723 49.9897 358.083 49.3297C357.463 48.6697 357.153 47.7297 357.153 46.5097C357.153 45.4897 357.443 44.5897 358.023 43.8097C358.623 43.0097 359.483 42.3897 360.603 41.9497C361.743 41.5097 363.083 41.2897 364.623 41.2897C365.763 41.2897 366.893 41.4197 368.013 41.6797C369.153 41.9197 370.093 42.2597 370.833 42.6997L369.273 46.0297C367.853 45.2297 366.303 44.8297 364.623 44.8297C363.623 44.8297 362.873 44.9697 362.373 45.2497C361.873 45.5297 361.623 45.8897 361.623 46.3297C361.623 46.8297 361.893 47.1797 362.433 47.3797C362.973 47.5797 363.833 47.7697 365.013 47.9497C366.333 48.1697 367.413 48.4097 368.253 48.6697C369.093 48.9097 369.823 49.3597 370.443 50.0197C371.063 50.6797 371.373 51.5997 371.373 52.7797C371.373 53.7797 371.073 54.6697 370.473 55.4497C369.873 56.2297 368.993 56.8397 367.833 57.2797C366.693 57.6997 365.333 57.9097 363.753 57.9097ZM384.67 56.8897C384.21 57.2297 383.64 57.4897 382.96 57.6697C382.3 57.8297 381.6 57.9097 380.86 57.9097C378.94 57.9097 377.45 57.4197 376.39 56.4397C375.35 55.4597 374.83 54.0197 374.83 52.1197V45.4897H372.34V41.8897H374.83V37.9597H379.51V41.8897H383.53V45.4897H379.51V52.0597C379.51 52.7397 379.68 53.2697 380.02 53.6497C380.38 54.0097 380.88 54.1897 381.52 54.1897C382.26 54.1897 382.89 53.9897 383.41 53.5897L384.67 56.8897ZM402.609 49.6597C402.609 49.7197 402.579 50.1397 402.519 50.9197H390.309C390.529 51.9197 391.049 52.7097 391.869 53.2897C392.689 53.8697 393.709 54.1597 394.929 54.1597C395.769 54.1597 396.509 54.0397 397.149 53.7997C397.809 53.5397 398.419 53.1397 398.979 52.5997L401.469 55.2997C399.949 57.0397 397.729 57.9097 394.809 57.9097C392.989 57.9097 391.379 57.5597 389.979 56.8597C388.579 56.1397 387.499 55.1497 386.739 53.8897C385.979 52.6297 385.599 51.1997 385.599 49.5997C385.599 48.0197 385.969 46.5997 386.709 45.3397C387.469 44.0597 388.499 43.0697 389.799 42.3697C391.119 41.6497 392.589 41.2897 394.209 41.2897C395.789 41.2897 397.219 41.6297 398.499 42.3097C399.779 42.9897 400.779 43.9697 401.499 45.2497C402.239 46.5097 402.609 47.9797 402.609 49.6597ZM394.239 44.8297C393.179 44.8297 392.289 45.1297 391.569 45.7297C390.849 46.3297 390.409 47.1497 390.249 48.1897H398.199C398.039 47.1697 397.599 46.3597 396.879 45.7597C396.159 45.1397 395.279 44.8297 394.239 44.8297ZM410.195 43.6597C410.755 42.8797 411.505 42.2897 412.445 41.8897C413.405 41.4897 414.505 41.2897 415.745 41.2897V45.6097C415.225 45.5697 414.875 45.5497 414.695 45.5497C413.355 45.5497 412.305 45.9297 411.545 46.6897C410.785 47.4297 410.405 48.5497 410.405 50.0497V57.6697H405.725V41.5297H410.195V43.6597Z" fill="white"/>
</svg>
