<svg width="836" height="486" viewBox="0 0 836 486" fill="none" xmlns="http://www.w3.org/2000/svg">
<path d="M769.5 244.5C769.5 298.303 731.217 347.504 668.249 383.396C605.353 419.247 518.296 441.5 422 441.5C325.704 441.5 238.647 419.247 175.751 383.396C112.783 347.504 74.5 298.303 74.5 244.5C74.5 190.697 112.783 141.496 175.751 105.604C238.647 69.7535 325.704 47.5 422 47.5C518.296 47.5 605.353 69.7535 668.249 105.604C731.217 141.496 769.5 190.697 769.5 244.5Z" stroke="#F46666" stroke-width="5"/>
<rect width="81.391" height="105.808" rx="4" transform="matrix(0.868777 -0.495203 0.868777 0.495203 0 200.917)" fill="#ECECEC"/>
<rect width="81.391" height="105.808" rx="4" transform="matrix(0.868777 -0.495203 0.868777 0.495203 0 199.305)" fill="white"/>
<path d="M23.8587 200.638L22.408 201.465L24.9065 202.889L24.0878 203.356L17.9114 199.835L19.956 198.67C20.6517 198.273 21.3446 198.059 22.0347 198.026C22.7275 197.993 23.3766 198.148 23.9818 198.493C24.3664 198.712 24.5969 198.963 24.6732 199.245C24.7524 199.526 24.6775 199.812 24.4484 200.104L28.5208 200.771L28.5717 200.8L27.6978 201.298L23.8587 200.638ZM21.7419 201.085L22.9934 200.372C23.3978 200.141 23.6141 199.899 23.6424 199.644C23.6735 199.388 23.5137 199.16 23.163 198.96C22.7813 198.742 22.374 198.641 21.9413 198.655C21.5115 198.668 21.0802 198.796 20.6475 199.04L19.4003 199.75L21.7419 201.085ZM31.3121 199.335C30.6899 199.689 29.9801 199.862 29.1826 199.852C28.3822 199.841 27.6398 199.64 26.9555 199.25L26.8112 199.168C26.3559 198.908 26.0363 198.628 25.8525 198.326C25.6687 198.022 25.6319 197.723 25.7422 197.432C25.8525 197.137 26.0901 196.885 26.4549 196.677C27.0516 196.337 27.712 196.185 28.4359 196.22C29.1599 196.256 29.8881 196.482 30.6206 196.9L30.9473 197.086L27.8378 198.858C28.3016 199.11 28.7993 199.244 29.331 199.26C29.8627 199.273 30.3237 199.168 30.7139 198.945C30.9911 198.787 31.1693 198.621 31.2484 198.447C31.3276 198.273 31.346 198.092 31.3036 197.903L32.1562 197.843C32.3627 198.399 32.0813 198.896 31.3121 199.335ZM27.0997 197.045C26.7829 197.225 26.6331 197.443 26.65 197.698C26.6642 197.951 26.8537 198.21 27.2185 198.476L29.5177 197.166L29.4583 197.132C29.0369 196.917 28.6212 196.803 28.2111 196.788C27.7982 196.772 27.4277 196.858 27.0997 197.045ZM35.3845 195.529C35.1724 195.408 34.9277 195.36 34.6506 195.386C34.3734 195.409 33.9931 195.509 33.5095 195.688C33.0287 195.866 32.6116 195.987 32.2581 196.053C31.9074 196.118 31.5935 196.136 31.3163 196.107C31.042 196.076 30.7917 195.996 30.5655 195.867C30.1893 195.653 30.0296 195.381 30.0861 195.052C30.1455 194.722 30.4227 194.416 30.9176 194.134C31.4379 193.837 31.9936 193.673 32.5847 193.643C33.1786 193.61 33.6848 193.714 34.1034 193.952L33.3143 194.402C33.0994 194.279 32.8223 194.226 32.4829 194.242C32.1463 194.257 31.8395 194.343 31.5624 194.501C31.2767 194.664 31.1155 194.827 31.0788 194.989C31.042 195.152 31.124 195.291 31.3248 195.405C31.5143 195.513 31.732 195.552 31.9781 195.521C32.2241 195.491 32.5861 195.389 33.0641 195.217C33.5448 195.043 33.9676 194.921 34.3324 194.852C34.6973 194.782 35.0239 194.764 35.3124 194.796C35.6008 194.825 35.8681 194.91 36.1141 195.05C36.5242 195.284 36.6896 195.565 36.6104 195.894C36.5284 196.221 36.2258 196.534 35.7026 196.832C35.335 197.042 34.9447 197.19 34.5318 197.277C34.1189 197.364 33.7159 197.387 33.3228 197.347C32.9297 197.303 32.5974 197.204 32.3259 197.05L33.1107 196.602C33.3879 196.744 33.7018 196.804 34.0525 196.781C34.4031 196.755 34.7397 196.651 35.0621 196.467C35.359 196.298 35.5372 196.128 35.5966 195.959C35.656 195.787 35.5853 195.643 35.3845 195.529ZM40.7889 193.319C40.8426 193.697 40.5739 194.055 39.9829 194.392C39.4936 194.671 38.9789 194.803 38.4388 194.789C37.8986 194.771 37.3485 194.604 36.7886 194.288L33.8022 192.586L34.587 192.139L37.5522 193.829C38.2479 194.225 38.8785 194.262 39.4441 193.94C40.0437 193.598 40.219 193.244 39.9702 192.876L36.6316 190.973L37.4164 190.526L42.0063 193.142L41.2597 193.568L40.7889 193.319ZM39.3508 189.423L39.8811 189.701C39.8217 189.284 40.0776 188.912 40.6489 188.587C41.2909 188.221 41.9738 188.112 42.6978 188.26C42.6299 188.047 42.6497 187.833 42.7572 187.617C42.8675 187.399 43.0895 187.195 43.4232 187.005C44.43 186.431 45.475 186.444 46.5581 187.042L49.6336 188.795L48.8488 189.242L45.82 187.515C45.4919 187.328 45.1724 187.232 44.8613 187.225C44.5474 187.217 44.2136 187.314 43.8601 187.515C43.5688 187.682 43.4147 187.869 43.3977 188.079C43.378 188.287 43.4996 188.483 43.7626 188.669L46.8084 190.405L46.0194 190.855L43.0117 189.14C42.3443 188.76 41.684 188.756 41.0307 189.128C40.516 189.422 40.383 189.747 40.6319 190.105L43.9832 192.015L43.1984 192.463L38.6084 189.846L39.3508 189.423ZM52.8109 187.08C52.1887 187.435 51.4789 187.607 50.6814 187.598C49.8811 187.586 49.1387 187.386 48.4543 186.996L48.3101 186.913C47.8548 186.654 47.5352 186.373 47.3514 186.072C47.1675 185.767 47.1308 185.469 47.2411 185.177C47.3514 184.882 47.5889 184.631 47.9537 184.423C48.5505 184.083 49.2108 183.93 49.9348 183.966C50.6588 184.001 51.387 184.228 52.1195 184.645L52.4461 184.832L49.3367 186.604C49.8005 186.855 50.2982 186.989 50.8299 187.005C51.3615 187.018 51.8225 186.913 52.2128 186.691C52.4899 186.533 52.6681 186.367 52.7473 186.193C52.8265 186.019 52.8449 185.837 52.8024 185.649L53.6551 185.588C53.8615 186.144 53.5801 186.642 52.8109 187.08ZM48.5985 184.79C48.2818 184.971 48.1319 185.189 48.1489 185.443C48.163 185.696 48.3525 185.956 48.7173 186.222L51.0165 184.911L50.9571 184.877C50.5357 184.663 50.12 184.549 49.71 184.534C49.2971 184.518 48.9266 184.603 48.5985 184.79Z" fill="#494949"/>
<path d="M36.0622 202.529L58.3361 189.833M32.8802 208.777L62.2252 192.05M36.7693 210.994L56.5683 199.708M52.3257 211.8L74.5995 199.104M49.1437 218.047L78.4886 201.32M53.0328 220.264L77.428 206.358M69.2962 221.473L91.5701 208.777M66.1143 227.72L95.4592 210.994M70.0033 229.937L84.1455 221.876M86.2668 231.146L108.541 218.45M83.0848 237.393L112.43 220.667M86.9739 239.61L95.1056 234.975M53.0328 177.943L72.8318 166.658M53.7399 178.346L73.5389 167.061M74.246 190.035L82.0242 185.601M80.6099 190.035L98.6412 179.757M81.317 194.065L102.53 181.974M85.2061 196.282L106.419 184.191M89.0952 198.499L110.308 186.407M92.9843 200.716L114.198 188.624M96.8734 202.933L118.087 190.841M100.762 205.149L121.976 193.058M104.652 207.366L121.269 197.894" stroke="#494949"/>
<rect width="2.44173" height="2.44173" rx="1" transform="matrix(0.868777 -0.495203 0.868777 0.495203 56.5684 179.959)" fill="#494949"/>
<rect width="2.44173" height="2.44173" rx="1" transform="matrix(0.868777 -0.495203 0.868777 0.495203 60.104 177.943)" fill="#494949"/>
<rect width="2.44173" height="2.44173" rx="1" transform="matrix(0.868777 -0.495203 0.868777 0.495203 63.6396 175.928)" fill="#494949"/>
<rect width="2.44173" height="2.44173" rx="1" transform="matrix(0.868777 -0.495203 0.868777 0.495203 60.104 181.974)" fill="#494949"/>
<rect width="2.44173" height="2.44173" rx="1" transform="matrix(0.868777 -0.495203 0.868777 0.495203 63.6396 179.959)" fill="#494949"/>
<rect width="2.44173" height="2.44173" rx="1" transform="matrix(0.868777 -0.495203 0.868777 0.495203 67.1753 177.943)" fill="#494949"/>
<rect width="2.44173" height="2.44173" rx="1" transform="matrix(0.868777 -0.495203 0.868777 0.495203 70.7104 175.928)" fill="#494949"/>
<rect width="2.44173" height="2.44173" rx="1" transform="matrix(0.868777 -0.495203 0.868777 0.495203 74.2461 173.913)" fill="#494949"/>
<rect width="2.44173" height="2.44173" rx="1" transform="matrix(0.868777 -0.495203 0.868777 0.495203 63.6396 183.989)" fill="#494949"/>
<rect width="2.44173" height="2.44173" rx="1" transform="matrix(0.868777 -0.495203 0.868777 0.495203 67.1753 181.974)" fill="#494949"/>
<rect width="2.44173" height="2.44173" rx="1" transform="matrix(0.868777 -0.495203 0.868777 0.495203 70.7109 179.959)" fill="#494949"/>
<rect width="2.44173" height="2.44173" rx="1" transform="matrix(0.868777 -0.495203 0.868777 0.495203 74.2461 177.943)" fill="#494949"/>
<rect width="2.44173" height="2.44173" rx="1" transform="matrix(0.868777 -0.495203 0.868777 0.495203 77.7817 175.928)" fill="#494949"/>
<rect width="2.44173" height="2.44173" rx="1" transform="matrix(0.868777 -0.495203 0.868777 0.495203 81.3174 173.913)" fill="#494949"/>
<rect width="2.44173" height="2.44173" rx="1" transform="matrix(0.868777 -0.495203 0.868777 0.495203 67.1753 186.004)" fill="#494949"/>
<rect width="2.44173" height="2.44173" rx="1" transform="matrix(0.868777 -0.495203 0.868777 0.495203 70.7109 183.989)" fill="#494949"/>
<rect width="2.44173" height="2.44173" rx="1" transform="matrix(0.868777 -0.495203 0.868777 0.495203 74.2466 181.974)" fill="#494949"/>
<rect width="2.44173" height="2.44173" rx="1" transform="matrix(0.868777 -0.495203 0.868777 0.495203 77.7817 179.959)" fill="#494949"/>
<rect width="2.44173" height="2.44173" rx="1" transform="matrix(0.868777 -0.495203 0.868777 0.495203 81.3174 177.943)" fill="#494949"/>
<mask id="path-25-inside-1" fill="white">
<path d="M144.652 211.438C142.693 210.321 140.037 209.694 137.267 209.694C134.497 209.694 131.841 210.321 129.883 211.438C127.924 212.554 126.824 214.068 126.824 215.647C126.824 217.226 127.924 218.74 129.883 219.856L137.267 215.647L144.652 211.438Z"/>
</mask>
<path d="M144.652 211.438C142.693 210.321 140.037 209.694 137.267 209.694C134.497 209.694 131.841 210.321 129.883 211.438C127.924 212.554 126.824 214.068 126.824 215.647C126.824 217.226 127.924 218.74 129.883 219.856L137.267 215.647L144.652 211.438Z" stroke="#494949" stroke-width="2" mask="url(#path-25-inside-1)"/>
<circle r="4" transform="matrix(0.868777 -0.495203 0.868777 0.495203 125.104 208.714)" stroke="#494949"/>
<rect width="81.391" height="105.808" rx="4" transform="matrix(0.868777 -0.495203 0.868777 0.495203 673 293.917)" fill="#ECECEC"/>
<rect width="81.391" height="105.808" rx="4" transform="matrix(0.868777 -0.495203 0.868777 0.495203 673 292.305)" fill="white"/>
<path d="M696.859 293.638L695.408 294.465L697.907 295.889L697.088 296.356L690.912 292.835L692.957 291.67C693.652 291.273 694.345 291.059 695.035 291.026C695.728 290.993 696.377 291.148 696.982 291.493C697.367 291.712 697.597 291.963 697.674 292.245C697.753 292.526 697.678 292.812 697.449 293.104L701.521 293.771L701.572 293.8L700.698 294.298L696.859 293.638ZM694.742 294.085L695.994 293.372C696.398 293.141 696.615 292.899 696.643 292.644C696.674 292.388 696.514 292.16 696.164 291.96C695.782 291.742 695.375 291.641 694.942 291.655C694.512 291.668 694.081 291.796 693.648 292.04L692.401 292.75L694.742 294.085ZM704.313 292.335C703.69 292.689 702.981 292.862 702.183 292.852C701.383 292.841 700.64 292.64 699.956 292.25L699.812 292.168C699.356 291.908 699.037 291.628 698.853 291.326C698.669 291.022 698.632 290.723 698.743 290.432C698.853 290.137 699.091 289.885 699.455 289.677C700.052 289.337 700.712 289.185 701.436 289.22C702.16 289.256 702.889 289.482 703.621 289.9L703.948 290.086L700.838 291.858C701.302 292.11 701.8 292.244 702.332 292.26C702.863 292.273 703.324 292.168 703.714 291.945C703.992 291.787 704.17 291.621 704.249 291.447C704.328 291.273 704.346 291.092 704.304 290.903L705.157 290.843C705.363 291.399 705.082 291.896 704.313 292.335ZM700.1 290.045C699.783 290.225 699.634 290.443 699.651 290.698C699.665 290.951 699.854 291.21 700.219 291.476L702.518 290.166L702.459 290.132C702.037 289.917 701.622 289.803 701.212 289.788C700.799 289.772 700.428 289.858 700.1 290.045ZM708.385 288.529C708.173 288.408 707.928 288.36 707.651 288.386C707.374 288.409 706.994 288.509 706.51 288.688C706.029 288.866 705.612 288.987 705.259 289.053C704.908 289.118 704.594 289.136 704.317 289.107C704.042 289.076 703.792 288.996 703.566 288.867C703.19 288.653 703.03 288.381 703.087 288.052C703.146 287.722 703.423 287.416 703.918 287.134C704.438 286.837 704.994 286.673 705.585 286.643C706.179 286.61 706.685 286.714 707.104 286.952L706.315 287.402C706.1 287.279 705.823 287.226 705.483 287.242C705.147 287.257 704.84 287.343 704.563 287.501C704.277 287.664 704.116 287.827 704.079 287.989C704.042 288.152 704.124 288.291 704.325 288.405C704.515 288.513 704.733 288.552 704.979 288.521C705.225 288.491 705.587 288.389 706.065 288.217C706.545 288.043 706.968 287.921 707.333 287.852C707.698 287.782 708.024 287.764 708.313 287.796C708.601 287.825 708.869 287.91 709.115 288.05C709.525 288.284 709.69 288.565 709.611 288.894C709.529 289.221 709.226 289.534 708.703 289.832C708.335 290.042 707.945 290.19 707.532 290.277C707.119 290.364 706.716 290.387 706.323 290.347C705.93 290.303 705.598 290.204 705.326 290.05L706.111 289.602C706.388 289.744 706.702 289.804 707.053 289.781C707.404 289.755 707.74 289.651 708.063 289.467C708.36 289.298 708.538 289.128 708.597 288.959C708.656 288.787 708.586 288.643 708.385 288.529ZM713.789 286.319C713.843 286.697 713.574 287.055 712.983 287.392C712.494 287.671 711.979 287.803 711.439 287.789C710.899 287.771 710.349 287.604 709.789 287.288L706.803 285.586L707.587 285.139L710.553 286.829C711.248 287.225 711.879 287.262 712.445 286.94C713.044 286.598 713.22 286.244 712.971 285.876L709.632 283.973L710.417 283.526L715.007 286.142L714.26 286.568L713.789 286.319ZM712.351 282.423L712.882 282.701C712.822 282.284 713.078 281.912 713.649 281.587C714.291 281.221 714.974 281.112 715.698 281.26C715.63 281.047 715.65 280.833 715.758 280.617C715.868 280.399 716.09 280.195 716.424 280.005C717.43 279.431 718.475 279.444 719.559 280.042L722.634 281.795L721.849 282.242L718.82 280.515C718.492 280.328 718.173 280.232 717.862 280.225C717.548 280.217 717.214 280.314 716.861 280.515C716.569 280.682 716.415 280.869 716.398 281.079C716.378 281.287 716.5 281.483 716.763 281.669L719.809 283.405L719.02 283.855L716.012 282.14C715.345 281.76 714.684 281.756 714.031 282.128C713.516 282.422 713.384 282.747 713.632 283.105L716.984 285.015L716.199 285.463L711.609 282.846L712.351 282.423ZM725.811 280.08C725.189 280.435 724.479 280.607 723.682 280.598C722.882 280.586 722.139 280.386 721.455 279.996L721.311 279.913C720.855 279.654 720.536 279.373 720.352 279.072C720.168 278.767 720.131 278.469 720.242 278.177C720.352 277.882 720.589 277.631 720.954 277.423C721.551 277.083 722.211 276.93 722.935 276.966C723.659 277.001 724.387 277.228 725.12 277.645L725.447 277.832L722.337 279.604C722.801 279.855 723.299 279.989 723.83 280.005C724.362 280.018 724.823 279.913 725.213 279.691C725.49 279.533 725.669 279.367 725.748 279.193C725.827 279.019 725.845 278.837 725.803 278.649L726.656 278.588C726.862 279.144 726.581 279.642 725.811 280.08ZM721.599 277.79C721.282 277.971 721.132 278.189 721.149 278.443C721.164 278.696 721.353 278.956 721.718 279.222L724.017 277.911L723.958 277.877C723.536 277.663 723.121 277.549 722.71 277.534C722.298 277.518 721.927 277.603 721.599 277.79Z" fill="#494949"/>
<path d="M709.063 295.529L731.337 282.833M705.881 301.777L735.226 285.05M709.77 303.994L729.569 292.708M725.326 304.8L747.6 292.104M722.144 311.047L751.489 294.32M726.033 313.264L750.428 299.358M742.297 314.473L764.571 301.777M739.115 320.72L768.46 303.994M743.004 322.937L757.146 314.876M759.267 324.146L781.541 311.45M756.085 330.393L785.43 313.667M759.974 332.61L768.106 327.975M726.033 270.943L745.832 259.658M726.74 271.346L746.539 260.061M747.246 283.035L755.025 278.601M753.61 283.035L771.642 272.757M754.318 287.065L775.531 274.974M758.207 289.282L779.42 277.191M762.096 291.499L783.309 279.407M765.985 293.716L787.198 281.624M769.874 295.933L791.087 283.841M773.763 298.149L794.976 286.058M777.652 300.366L794.269 290.894" stroke="#494949"/>
<rect width="2.44173" height="2.44173" rx="1" transform="matrix(0.868777 -0.495203 0.868777 0.495203 729.568 272.959)" fill="#494949"/>
<rect width="2.44173" height="2.44173" rx="1" transform="matrix(0.868777 -0.495203 0.868777 0.495203 733.104 270.943)" fill="#494949"/>
<rect width="2.44173" height="2.44173" rx="1" transform="matrix(0.868777 -0.495203 0.868777 0.495203 736.64 268.928)" fill="#494949"/>
<rect width="2.44173" height="2.44173" rx="1" transform="matrix(0.868777 -0.495203 0.868777 0.495203 733.104 274.974)" fill="#494949"/>
<rect width="2.44173" height="2.44173" rx="1" transform="matrix(0.868777 -0.495203 0.868777 0.495203 736.64 272.959)" fill="#494949"/>
<rect width="2.44173" height="2.44173" rx="1" transform="matrix(0.868777 -0.495203 0.868777 0.495203 740.176 270.943)" fill="#494949"/>
<rect width="2.44173" height="2.44173" rx="1" transform="matrix(0.868777 -0.495203 0.868777 0.495203 743.711 268.928)" fill="#494949"/>
<rect width="2.44173" height="2.44173" rx="1" transform="matrix(0.868777 -0.495203 0.868777 0.495203 747.247 266.913)" fill="#494949"/>
<rect width="2.44173" height="2.44173" rx="1" transform="matrix(0.868777 -0.495203 0.868777 0.495203 736.64 276.989)" fill="#494949"/>
<rect width="2.44173" height="2.44173" rx="1" transform="matrix(0.868777 -0.495203 0.868777 0.495203 740.175 274.974)" fill="#494949"/>
<rect width="2.44173" height="2.44173" rx="1" transform="matrix(0.868777 -0.495203 0.868777 0.495203 743.711 272.959)" fill="#494949"/>
<rect width="2.44173" height="2.44173" rx="1" transform="matrix(0.868777 -0.495203 0.868777 0.495203 747.246 270.943)" fill="#494949"/>
<rect width="2.44173" height="2.44173" rx="1" transform="matrix(0.868777 -0.495203 0.868777 0.495203 750.782 268.928)" fill="#494949"/>
<rect width="2.44173" height="2.44173" rx="1" transform="matrix(0.868777 -0.495203 0.868777 0.495203 754.317 266.913)" fill="#494949"/>
<rect width="2.44173" height="2.44173" rx="1" transform="matrix(0.868777 -0.495203 0.868777 0.495203 740.175 279.004)" fill="#494949"/>
<rect width="2.44173" height="2.44173" rx="1" transform="matrix(0.868777 -0.495203 0.868777 0.495203 743.71 276.989)" fill="#494949"/>
<rect width="2.44173" height="2.44173" rx="1" transform="matrix(0.868777 -0.495203 0.868777 0.495203 747.246 274.974)" fill="#494949"/>
<rect width="2.44173" height="2.44173" rx="1" transform="matrix(0.868777 -0.495203 0.868777 0.495203 750.781 272.959)" fill="#494949"/>
<rect width="2.44173" height="2.44173" rx="1" transform="matrix(0.868777 -0.495203 0.868777 0.495203 754.317 270.943)" fill="#494949"/>
<mask id="path-50-inside-2" fill="white">
<path d="M817.651 304.438C815.692 303.321 813.036 302.694 810.266 302.694C807.497 302.694 804.84 303.321 802.882 304.438C800.923 305.554 799.823 307.068 799.823 308.647C799.823 310.226 800.923 311.74 802.882 312.856L810.266 308.647L817.651 304.438Z"/>
</mask>
<path d="M817.651 304.438C815.692 303.321 813.036 302.694 810.266 302.694C807.497 302.694 804.84 303.321 802.882 304.438C800.923 305.554 799.823 307.068 799.823 308.647C799.823 310.226 800.923 311.74 802.882 312.856L810.266 308.647L817.651 304.438Z" stroke="#494949" stroke-width="2" mask="url(#path-50-inside-2)"/>
<circle r="4" transform="matrix(0.868777 -0.495203 0.868777 0.495203 798.104 301.714)" stroke="#494949"/>
<rect width="81.391" height="105.808" rx="4" transform="matrix(0.868777 -0.495203 0.868777 0.495203 275 433.917)" fill="#ECECEC"/>
<rect width="81.391" height="105.808" rx="4" transform="matrix(0.868777 -0.495203 0.868777 0.495203 275 432.305)" fill="white"/>
<path d="M298.859 433.638L297.408 434.465L299.907 435.889L299.088 436.356L292.911 432.835L294.956 431.67C295.652 431.273 296.345 431.059 297.035 431.026C297.728 430.993 298.377 431.148 298.982 431.493C299.366 431.712 299.597 431.963 299.673 432.245C299.752 432.526 299.677 432.812 299.448 433.104L303.521 433.771L303.572 433.8L302.698 434.298L298.859 433.638ZM296.742 434.085L297.993 433.372C298.398 433.141 298.614 432.899 298.642 432.644C298.674 432.388 298.514 432.16 298.163 431.96C297.781 431.742 297.374 431.641 296.941 431.655C296.511 431.668 296.08 431.796 295.647 432.04L294.4 432.75L296.742 434.085ZM306.312 432.335C305.69 432.689 304.98 432.862 304.183 432.852C303.382 432.841 302.64 432.64 301.955 432.25L301.811 432.168C301.356 431.908 301.036 431.628 300.853 431.326C300.669 431.022 300.632 430.723 300.742 430.432C300.853 430.137 301.09 429.885 301.455 429.677C302.052 429.337 302.712 429.185 303.436 429.22C304.16 429.256 304.888 429.482 305.621 429.9L305.947 430.086L302.838 431.858C303.302 432.11 303.799 432.244 304.331 432.26C304.863 432.273 305.324 432.168 305.714 431.945C305.991 431.787 306.169 431.621 306.248 431.447C306.328 431.273 306.346 431.092 306.304 430.903L307.156 430.843C307.363 431.399 307.081 431.896 306.312 432.335ZM302.1 430.045C301.783 430.225 301.633 430.443 301.65 430.698C301.664 430.951 301.854 431.21 302.218 431.476L304.518 430.166L304.458 430.132C304.037 429.917 303.621 429.803 303.211 429.788C302.798 429.772 302.428 429.858 302.1 430.045ZM310.384 428.529C310.172 428.408 309.928 428.36 309.651 428.386C309.373 428.409 308.993 428.509 308.509 428.688C308.029 428.866 307.612 428.987 307.258 429.053C306.907 429.118 306.593 429.136 306.316 429.107C306.042 429.076 305.792 428.996 305.565 428.867C305.189 428.653 305.03 428.381 305.086 428.052C305.146 427.722 305.423 427.416 305.918 427.134C306.438 426.837 306.994 426.673 307.585 426.643C308.179 426.61 308.685 426.714 309.103 426.952L308.314 427.402C308.099 427.279 307.822 427.226 307.483 427.242C307.146 427.257 306.84 427.343 306.562 427.501C306.277 427.664 306.116 427.827 306.079 427.989C306.042 428.152 306.124 428.291 306.325 428.405C306.514 428.513 306.732 428.552 306.978 428.521C307.224 428.491 307.586 428.389 308.064 428.217C308.545 428.043 308.968 427.921 309.332 427.852C309.697 427.782 310.024 427.764 310.312 427.796C310.601 427.825 310.868 427.91 311.114 428.05C311.524 428.284 311.69 428.565 311.61 428.894C311.528 429.221 311.226 429.534 310.703 429.832C310.335 430.042 309.945 430.19 309.532 430.277C309.119 430.364 308.716 430.387 308.323 430.347C307.93 430.303 307.597 430.204 307.326 430.05L308.111 429.602C308.388 429.744 308.702 429.804 309.052 429.781C309.403 429.755 309.74 429.651 310.062 429.467C310.359 429.298 310.537 429.128 310.597 428.959C310.656 428.787 310.585 428.643 310.384 428.529ZM315.789 426.319C315.843 426.697 315.574 427.055 314.983 427.392C314.494 427.671 313.979 427.803 313.439 427.789C312.899 427.771 312.349 427.604 311.789 427.288L308.802 425.586L309.587 425.139L312.552 426.829C313.248 427.225 313.879 427.262 314.444 426.94C315.044 426.598 315.219 426.244 314.97 425.876L311.632 423.973L312.416 423.526L317.006 426.142L316.26 426.568L315.789 426.319ZM314.351 422.423L314.881 422.701C314.822 422.284 315.078 421.912 315.649 421.587C316.291 421.221 316.974 421.112 317.698 421.26C317.63 421.047 317.65 420.833 317.757 420.617C317.867 420.399 318.089 420.195 318.423 420.005C319.43 419.431 320.475 419.444 321.558 420.042L324.634 421.795L323.849 422.242L320.82 420.515C320.492 420.328 320.172 420.232 319.861 420.225C319.547 420.217 319.214 420.314 318.86 420.515C318.569 420.682 318.415 420.869 318.398 421.079C318.378 421.287 318.5 421.483 318.763 421.669L321.808 423.405L321.019 423.855L318.012 422.14C317.344 421.76 316.684 421.756 316.031 422.128C315.516 422.422 315.383 422.747 315.632 423.105L318.983 425.015L318.198 425.463L313.608 422.846L314.351 422.423ZM327.811 420.08C327.189 420.435 326.479 420.607 325.681 420.598C324.881 420.586 324.139 420.386 323.454 419.996L323.31 419.913C322.855 419.654 322.535 419.373 322.351 419.072C322.168 418.767 322.131 418.469 322.241 418.177C322.351 417.882 322.589 417.631 322.954 417.423C323.55 417.083 324.211 416.93 324.935 416.966C325.659 417.001 326.387 417.228 327.119 417.645L327.446 417.832L324.337 419.604C324.8 419.855 325.298 419.989 325.83 420.005C326.362 420.018 326.823 419.913 327.213 419.691C327.49 419.533 327.668 419.367 327.747 419.193C327.826 419.019 327.845 418.837 327.802 418.649L328.655 418.588C328.862 419.144 328.58 419.642 327.811 420.08ZM323.599 417.79C323.282 417.971 323.132 418.189 323.149 418.443C323.163 418.696 323.352 418.956 323.717 419.222L326.017 417.911L325.957 417.877C325.536 417.663 325.12 417.549 324.71 417.534C324.297 417.518 323.927 417.603 323.599 417.79Z" fill="#494949"/>
<path d="M311.062 435.529L333.336 422.833M307.88 441.777L337.225 425.05M311.769 443.994L331.568 432.708M327.326 444.8L349.6 432.104M324.144 451.047L353.489 434.32M328.033 453.264L352.428 439.358M344.296 454.473L366.57 441.777M341.114 460.72L370.459 443.994M345.003 462.937L359.145 454.876M361.267 464.146L383.541 451.45M358.085 470.393L387.43 453.667M361.974 472.61L370.106 467.975M328.033 410.943L347.832 399.658M328.74 411.346L348.539 400.061M349.246 423.035L357.024 418.601M355.61 423.035L373.641 412.757M356.317 427.065L377.53 414.974M360.206 429.282L381.419 417.191M364.095 431.499L385.308 419.407M367.984 433.716L389.198 421.624M371.873 435.933L393.087 423.841M375.762 438.149L396.976 426.058M379.652 440.366L396.269 430.894" stroke="#494949"/>
<rect width="2.44173" height="2.44173" rx="1" transform="matrix(0.868777 -0.495203 0.868777 0.495203 331.568 412.959)" fill="#494949"/>
<rect width="2.44173" height="2.44173" rx="1" transform="matrix(0.868777 -0.495203 0.868777 0.495203 335.104 410.943)" fill="#494949"/>
<rect width="2.44173" height="2.44173" rx="1" transform="matrix(0.868777 -0.495203 0.868777 0.495203 338.64 408.928)" fill="#494949"/>
<rect width="2.44173" height="2.44173" rx="1" transform="matrix(0.868777 -0.495203 0.868777 0.495203 335.104 414.974)" fill="#494949"/>
<rect width="2.44173" height="2.44173" rx="1" transform="matrix(0.868777 -0.495203 0.868777 0.495203 338.64 412.959)" fill="#494949"/>
<rect width="2.44173" height="2.44173" rx="1" transform="matrix(0.868777 -0.495203 0.868777 0.495203 342.175 410.943)" fill="#494949"/>
<rect width="2.44173" height="2.44173" rx="1" transform="matrix(0.868777 -0.495203 0.868777 0.495203 345.71 408.928)" fill="#494949"/>
<rect width="2.44173" height="2.44173" rx="1" transform="matrix(0.868777 -0.495203 0.868777 0.495203 349.246 406.913)" fill="#494949"/>
<rect width="2.44173" height="2.44173" rx="1" transform="matrix(0.868777 -0.495203 0.868777 0.495203 338.64 416.989)" fill="#494949"/>
<rect width="2.44173" height="2.44173" rx="1" transform="matrix(0.868777 -0.495203 0.868777 0.495203 342.175 414.974)" fill="#494949"/>
<rect width="2.44173" height="2.44173" rx="1" transform="matrix(0.868777 -0.495203 0.868777 0.495203 345.711 412.959)" fill="#494949"/>
<rect width="2.44173" height="2.44173" rx="1" transform="matrix(0.868777 -0.495203 0.868777 0.495203 349.246 410.943)" fill="#494949"/>
<rect width="2.44173" height="2.44173" rx="1" transform="matrix(0.868777 -0.495203 0.868777 0.495203 352.782 408.928)" fill="#494949"/>
<rect width="2.44173" height="2.44173" rx="1" transform="matrix(0.868777 -0.495203 0.868777 0.495203 356.317 406.913)" fill="#494949"/>
<rect width="2.44173" height="2.44173" rx="1" transform="matrix(0.868777 -0.495203 0.868777 0.495203 342.175 419.004)" fill="#494949"/>
<rect width="2.44173" height="2.44173" rx="1" transform="matrix(0.868777 -0.495203 0.868777 0.495203 345.711 416.989)" fill="#494949"/>
<rect width="2.44173" height="2.44173" rx="1" transform="matrix(0.868777 -0.495203 0.868777 0.495203 349.247 414.974)" fill="#494949"/>
<rect width="2.44173" height="2.44173" rx="1" transform="matrix(0.868777 -0.495203 0.868777 0.495203 352.782 412.959)" fill="#494949"/>
<rect width="2.44173" height="2.44173" rx="1" transform="matrix(0.868777 -0.495203 0.868777 0.495203 356.317 410.943)" fill="#494949"/>
<mask id="path-75-inside-3" fill="white">
<path d="M419.652 444.438C417.693 443.321 415.037 442.694 412.267 442.694C409.497 442.694 406.841 443.321 404.883 444.438C402.924 445.554 401.824 447.068 401.824 448.647C401.824 450.226 402.924 451.74 404.883 452.856L412.267 448.647L419.652 444.438Z"/>
</mask>
<path d="M419.652 444.438C417.693 443.321 415.037 442.694 412.267 442.694C409.497 442.694 406.841 443.321 404.883 444.438C402.924 445.554 401.824 447.068 401.824 448.647C401.824 450.226 402.924 451.74 404.883 452.856L412.267 448.647L419.652 444.438Z" stroke="#494949" stroke-width="2" mask="url(#path-75-inside-3)"/>
<circle r="4" transform="matrix(0.868777 -0.495203 0.868777 0.495203 400.104 441.714)" stroke="#494949"/>
<rect width="81.391" height="105.808" rx="4" transform="matrix(0.868777 -0.495203 0.868777 0.495203 379 41.9173)" fill="#ECECEC"/>
<rect width="81.391" height="105.808" rx="4" transform="matrix(0.868777 -0.495203 0.868777 0.495203 379 40.3051)" fill="white"/>
<path d="M402.859 41.6379L401.408 42.4648L403.907 43.889L403.088 44.3557L396.911 40.8351L398.956 39.6696C399.652 39.2731 400.345 39.0587 401.035 39.0265C401.728 38.9926 402.377 39.1482 402.982 39.4931C403.366 39.7124 403.597 39.963 403.673 40.2451C403.752 40.5256 403.677 40.8117 403.448 41.1035L407.521 41.7709L407.572 41.7999L406.698 42.298L402.859 41.6379ZM400.742 42.0852L401.993 41.3719C402.398 41.1414 402.614 40.8988 402.642 40.6441C402.674 40.3878 402.514 40.1597 402.163 39.9598C401.781 39.7422 401.374 39.6406 400.941 39.6551C400.511 39.668 400.08 39.7962 399.647 40.0396L398.4 40.7505L400.742 42.0852ZM410.312 40.3346C409.69 40.6892 408.98 40.8617 408.183 40.852C407.382 40.8407 406.64 40.6401 405.955 40.25L405.811 40.1677C405.356 39.9082 405.036 39.6277 404.853 39.3263C404.669 39.0216 404.632 38.7234 404.742 38.4316C404.853 38.1366 405.09 37.8852 405.455 37.6772C406.052 37.3371 406.712 37.1848 407.436 37.2202C408.16 37.2557 408.888 37.4822 409.621 37.8997L409.947 38.0859L406.838 39.8582C407.302 40.1097 407.799 40.2435 408.331 40.2596C408.863 40.2725 409.324 40.1677 409.714 39.9453C409.991 39.7873 410.169 39.6213 410.248 39.4472C410.328 39.2731 410.346 39.0917 410.304 38.9031L411.156 38.8427C411.363 39.3988 411.081 39.8961 410.312 40.3346ZM406.1 38.0448C405.783 38.2253 405.633 38.4429 405.65 38.6976C405.664 38.9507 405.854 39.2102 406.218 39.4762L408.518 38.1657L408.458 38.1318C408.037 37.9174 407.621 37.803 407.211 37.7884C406.798 37.7723 406.428 37.8578 406.1 38.0448ZM414.384 36.5287C414.172 36.4078 413.928 36.3602 413.651 36.386C413.373 36.4086 412.993 36.5093 412.509 36.6883C412.029 36.8656 411.612 36.9873 411.258 37.0534C410.907 37.1179 410.593 37.1356 410.316 37.1066C410.042 37.0759 409.792 36.9962 409.565 36.8672C409.189 36.6528 409.03 36.3812 409.086 36.0523C409.146 35.7219 409.423 35.4156 409.918 35.1335C410.438 34.8369 410.994 34.6733 411.585 34.6427C412.179 34.6104 412.685 34.7136 413.103 34.9522L412.314 35.4019C412.099 35.2794 411.822 35.2262 411.483 35.2423C411.146 35.2568 410.84 35.3431 410.562 35.501C410.277 35.6638 410.116 35.8267 410.079 35.9895C410.042 36.1523 410.124 36.2909 410.325 36.4054C410.514 36.5134 410.732 36.5521 410.978 36.5214C411.224 36.4908 411.586 36.3892 412.064 36.2168C412.545 36.0427 412.968 35.921 413.332 35.8516C413.697 35.7823 414.024 35.7638 414.312 35.796C414.601 35.825 414.868 35.9097 415.114 36.0499C415.524 36.2837 415.69 36.5649 415.61 36.8938C415.528 37.221 415.226 37.5338 414.703 37.832C414.335 38.0415 413.945 38.1898 413.532 38.2769C413.119 38.3639 412.716 38.3873 412.323 38.347C411.93 38.3035 411.597 38.2043 411.326 38.0496L412.111 37.6023C412.388 37.7441 412.702 37.8038 413.052 37.7812C413.403 37.7554 413.74 37.6506 414.062 37.4669C414.359 37.2976 414.537 37.1283 414.597 36.9591C414.656 36.7866 414.585 36.6431 414.384 36.5287ZM419.789 34.3186C419.843 34.6975 419.574 35.0553 418.983 35.3922C418.494 35.6711 417.979 35.8033 417.439 35.7888C416.899 35.771 416.349 35.6042 415.789 35.2883L412.802 33.586L413.587 33.1387L416.552 34.8288C417.248 35.2254 417.879 35.2625 418.444 34.9401C419.044 34.5983 419.219 34.2437 418.97 33.8761L415.632 31.9732L416.416 31.5259L421.006 34.1421L420.26 34.5677L419.789 34.3186ZM418.351 30.4233L418.881 30.7013C418.822 30.2838 419.078 29.9123 419.649 29.5866C420.291 29.2207 420.974 29.1119 421.698 29.2602C421.63 29.0474 421.65 28.833 421.757 28.617C421.867 28.3994 422.089 28.1955 422.423 28.0053C423.43 27.4314 424.475 27.4435 425.558 28.0416L428.634 29.7946L427.849 30.2419L424.82 28.5155C424.492 28.3285 424.172 28.2318 423.861 28.2253C423.547 28.2173 423.214 28.314 422.86 28.5155C422.569 28.6815 422.415 28.8693 422.398 29.0789C422.378 29.2868 422.5 29.4835 422.763 29.6689L425.808 31.405L425.019 31.8547L422.012 30.1404C421.344 29.7599 420.684 29.7559 420.031 30.1283C419.516 30.4217 419.383 30.7473 419.632 31.1051L422.983 33.0153L422.198 33.4627L417.608 30.8464L418.351 30.4233ZM431.811 28.0802C431.189 28.4349 430.479 28.6074 429.681 28.5977C428.881 28.5864 428.139 28.3857 427.454 27.9956L427.31 27.9134C426.855 27.6539 426.535 27.3734 426.351 27.0719C426.168 26.7673 426.131 26.4691 426.241 26.1773C426.351 25.8823 426.589 25.6308 426.954 25.4229C427.55 25.0827 428.211 24.9304 428.935 24.9659C429.659 25.0013 430.387 25.2278 431.119 25.6453L431.446 25.8315L428.337 27.6039C428.8 27.8554 429.298 27.9892 429.83 28.0053C430.362 28.0182 430.823 27.9134 431.213 27.6909C431.49 27.533 431.668 27.3669 431.747 27.1928C431.826 27.0187 431.845 26.8374 431.802 26.6488L432.655 26.5883C432.862 27.1445 432.58 27.6418 431.811 28.0802ZM427.599 25.7904C427.282 25.971 427.132 26.1886 427.149 26.4433C427.163 26.6963 427.352 26.9559 427.717 27.2219L430.017 25.9113L429.957 25.8775C429.536 25.6631 429.12 25.5486 428.71 25.5341C428.297 25.518 427.927 25.6034 427.599 25.7904Z" fill="#494949"/>
<path d="M415.062 43.5295L437.336 30.8334M411.88 49.7768L441.225 33.0502M415.769 51.9935L435.568 40.7081M431.326 52.7996L453.6 40.1035M428.144 59.0469L457.489 42.3203M432.033 61.2637L456.428 47.3585M448.296 62.4729L470.57 49.7768M445.114 68.7202L474.459 51.9935M449.003 70.9369L463.145 62.8759M465.267 72.1461L487.541 59.45M462.085 78.3934L491.43 61.6668M465.974 80.6102L474.106 75.9751M432.033 18.9434L451.832 7.65795M432.74 19.3464L452.539 8.061M453.246 31.0349L461.024 26.6013M459.61 31.0349L477.641 20.7571M460.317 35.0654L481.53 22.9739M464.206 37.2822L485.419 25.1907M468.095 39.499L489.308 27.4074M471.984 41.7158L493.198 29.6242M475.873 43.9325L497.087 31.841M479.762 46.1493L500.976 34.0578M483.652 48.3661L500.269 38.8944" stroke="#494949"/>
<rect width="2.44173" height="2.44173" rx="1" transform="matrix(0.868777 -0.495203 0.868777 0.495203 435.568 20.9586)" fill="#494949"/>
<rect width="2.44173" height="2.44173" rx="1" transform="matrix(0.868777 -0.495203 0.868777 0.495203 439.104 18.9434)" fill="#494949"/>
<rect width="2.44173" height="2.44173" rx="1" transform="matrix(0.868777 -0.495203 0.868777 0.495203 442.64 16.9281)" fill="#494949"/>
<rect width="2.44173" height="2.44173" rx="1" transform="matrix(0.868777 -0.495203 0.868777 0.495203 439.104 22.9739)" fill="#494949"/>
<rect width="2.44173" height="2.44173" rx="1" transform="matrix(0.868777 -0.495203 0.868777 0.495203 442.64 20.9586)" fill="#494949"/>
<rect width="2.44173" height="2.44173" rx="1" transform="matrix(0.868777 -0.495203 0.868777 0.495203 446.175 18.9434)" fill="#494949"/>
<rect width="2.44173" height="2.44173" rx="1" transform="matrix(0.868777 -0.495203 0.868777 0.495203 449.71 16.9281)" fill="#494949"/>
<rect width="2.44173" height="2.44173" rx="1" transform="matrix(0.868777 -0.495203 0.868777 0.495203 453.246 14.9129)" fill="#494949"/>
<rect width="2.44173" height="2.44173" rx="1" transform="matrix(0.868777 -0.495203 0.868777 0.495203 442.64 24.9892)" fill="#494949"/>
<rect width="2.44173" height="2.44173" rx="1" transform="matrix(0.868777 -0.495203 0.868777 0.495203 446.175 22.9739)" fill="#494949"/>
<rect width="2.44173" height="2.44173" rx="1" transform="matrix(0.868777 -0.495203 0.868777 0.495203 449.711 20.9586)" fill="#494949"/>
<rect width="2.44173" height="2.44173" rx="1" transform="matrix(0.868777 -0.495203 0.868777 0.495203 453.246 18.9434)" fill="#494949"/>
<rect width="2.44173" height="2.44173" rx="1" transform="matrix(0.868777 -0.495203 0.868777 0.495203 456.782 16.9282)" fill="#494949"/>
<rect width="2.44173" height="2.44173" rx="1" transform="matrix(0.868777 -0.495203 0.868777 0.495203 460.317 14.9129)" fill="#494949"/>
<rect width="2.44173" height="2.44173" rx="1" transform="matrix(0.868777 -0.495203 0.868777 0.495203 446.175 27.0044)" fill="#494949"/>
<rect width="2.44173" height="2.44173" rx="1" transform="matrix(0.868777 -0.495203 0.868777 0.495203 449.711 24.9891)" fill="#494949"/>
<rect width="2.44173" height="2.44173" rx="1" transform="matrix(0.868777 -0.495203 0.868777 0.495203 453.247 22.9739)" fill="#494949"/>
<rect width="2.44173" height="2.44173" rx="1" transform="matrix(0.868777 -0.495203 0.868777 0.495203 456.782 20.9586)" fill="#494949"/>
<rect width="2.44173" height="2.44173" rx="1" transform="matrix(0.868777 -0.495203 0.868777 0.495203 460.317 18.9434)" fill="#494949"/>
<mask id="path-100-inside-4" fill="white">
<path d="M523.652 52.4376C521.693 51.3212 519.037 50.694 516.267 50.694C513.497 50.694 510.841 51.3212 508.883 52.4376C506.924 53.5539 505.824 55.068 505.824 56.6468C505.824 58.2256 506.924 59.7397 508.883 60.856L516.267 56.6468L523.652 52.4376Z"/>
</mask>
<path d="M523.652 52.4376C521.693 51.3212 519.037 50.694 516.267 50.694C513.497 50.694 510.841 51.3212 508.883 52.4376C506.924 53.5539 505.824 55.068 505.824 56.6468C505.824 58.2256 506.924 59.7397 508.883 60.856L516.267 56.6468L523.652 52.4376Z" stroke="#494949" stroke-width="2" mask="url(#path-100-inside-4)"/>
<circle r="4" transform="matrix(0.868777 -0.495203 0.868777 0.495203 504.104 49.714)" stroke="#494949"/>
<rect width="81.391" height="105.808" rx="4" transform="matrix(0.868777 -0.495203 0.868777 0.495203 134 84.9173)" fill="#ECECEC"/>
<rect width="81.391" height="105.808" rx="4" transform="matrix(0.868777 -0.495203 0.868777 0.495203 134 83.3051)" fill="white"/>
<path d="M165.471 83.9812C166.278 84.5634 166.647 85.1592 166.575 85.7685C166.504 86.3733 165.997 86.9443 165.055 87.4814C164.034 88.0637 162.848 88.3221 161.498 88.2566C160.151 88.1889 158.865 87.8053 157.637 87.1057L156.806 86.6317C156.002 86.1736 155.438 85.6895 155.113 85.1795C154.793 84.6672 154.733 84.1685 154.935 83.6833C155.133 83.1958 155.578 82.7546 156.271 82.3597C157.19 81.8361 158.184 81.563 159.253 81.5404C160.318 81.5156 161.349 81.7357 162.347 82.2005L161.201 82.8539C160.413 82.5176 159.698 82.3563 159.057 82.3698C158.419 82.3811 157.804 82.556 157.21 82.8945C156.481 83.3098 156.178 83.7893 156.301 84.3332C156.428 84.8748 156.988 85.4289 157.982 85.9953L158.819 86.4726C159.757 87.0075 160.7 87.3212 161.646 87.4137C162.592 87.5063 163.418 87.3517 164.123 86.95C164.756 86.5889 165.099 86.2312 165.15 85.8769C165.201 85.518 164.926 85.1039 164.325 84.6345L165.471 83.9812ZM171.125 82.1599L166.463 76.6861L167.71 75.9752L173.15 82.732L172.14 83.3075L160.292 80.2033L161.533 79.4958L171.125 82.1599Z" fill="#494949"/>
<mask id="path-105-inside-5" fill="white">
<path d="M217.837 58.7925C215.879 57.6762 213.223 57.049 210.453 57.049C207.683 57.049 205.027 57.6762 203.068 58.7925C201.11 59.9089 200.009 61.423 200.009 63.0018C200.009 64.5805 201.11 66.0946 203.068 67.211L210.453 63.0018L217.837 58.7925Z"/>
</mask>
<path d="M217.837 58.7925C215.879 57.6762 213.223 57.049 210.453 57.049C207.683 57.049 205.027 57.6762 203.068 58.7925C201.11 59.9089 200.009 61.423 200.009 63.0018C200.009 64.5805 201.11 66.0946 203.068 67.211L210.453 63.0018L217.837 58.7925Z" stroke="#494949" stroke-width="2" mask="url(#path-105-inside-5)"/>
<circle r="4" transform="matrix(0.868777 -0.495203 0.868777 0.495203 198.29 56.0689)" stroke="#494949"/>
<path d="M165.642 97.3793L177.872 90.4077M187.657 84.8305L197.092 79.4524M205.479 74.6719L219.807 66.5052M170.123 99.9335L176.762 96.1489M184.8 91.5676L197.38 84.3969M205.417 79.8155L213.804 75.035M223.239 69.657L232.675 64.2789" stroke="black"/>
<path d="M161.801 95.19L225.222 59.0401" stroke="#494949" stroke-width="0.5"/>
<path d="M173.964 102.123L237.385 65.973" stroke="#494949" stroke-width="0.5"/>
<path d="M187.664 101.246L241.728 70.4298M186.199 106.126L245.276 72.4519M189.746 108.148L226.625 87.1271M198.306 107.313L252.371 76.496M196.841 112.192L255.918 78.5181M200.389 114.214L259.466 80.5402M203.936 116.236L263.013 82.5623M207.484 118.258L266.561 84.5844M211.031 120.28L264.022 90.0759M219.592 119.445L273.656 88.6285M218.126 124.324L277.203 90.6506M221.674 126.346L280.751 92.6727M225.221 128.369L271.409 102.042" stroke="black"/>
<rect width="81.391" height="105.808" rx="4" transform="matrix(0.868777 -0.495203 0.868777 0.495203 617 121.917)" fill="#ECECEC"/>
<rect width="81.391" height="105.808" rx="4" transform="matrix(0.868777 -0.495203 0.868777 0.495203 617 120.305)" fill="white"/>
<path d="M648.471 120.981C649.279 121.563 649.647 122.159 649.576 122.769C649.505 123.373 648.998 123.944 648.055 124.481C647.034 125.064 645.848 125.322 644.498 125.257C643.152 125.189 641.865 124.805 640.638 124.106L639.806 123.632C639.003 123.174 638.438 122.69 638.114 122.18C637.793 121.667 637.734 121.168 637.936 120.683C638.134 120.196 638.579 119.755 639.272 119.36C640.19 118.836 641.184 118.563 642.253 118.54C643.318 118.516 644.35 118.736 645.347 119.201L644.201 119.854C643.413 119.518 642.699 119.356 642.057 119.37C641.42 119.381 640.804 119.556 640.21 119.895C639.482 120.31 639.179 120.789 639.302 121.333C639.428 121.875 639.988 122.429 640.982 122.995L641.82 123.473C642.758 124.008 643.7 124.321 644.647 124.414C645.593 124.506 646.418 124.352 647.123 123.95C647.757 123.589 648.099 123.231 648.151 122.877C648.202 122.518 647.927 122.104 647.325 121.634L648.471 120.981ZM654.125 119.16L649.463 113.686L650.71 112.975L656.15 119.732L655.141 120.308L643.292 117.203L644.534 116.496L654.125 119.16Z" fill="#494949"/>
<mask id="path-114-inside-6" fill="white">
<path d="M700.836 95.7925C698.878 94.6762 696.222 94.049 693.452 94.049C690.682 94.049 688.026 94.6762 686.067 95.7925C684.109 96.9089 683.008 98.423 683.008 100.002C683.008 101.581 684.109 103.095 686.067 104.211L693.452 100.002L700.836 95.7925Z"/>
</mask>
<path d="M700.836 95.7925C698.878 94.6762 696.222 94.049 693.452 94.049C690.682 94.049 688.026 94.6762 686.067 95.7925C684.109 96.9089 683.008 98.423 683.008 100.002C683.008 101.581 684.109 103.095 686.067 104.211L693.452 100.002L700.836 95.7925Z" stroke="#494949" stroke-width="2" mask="url(#path-114-inside-6)"/>
<circle r="4" transform="matrix(0.868777 -0.495203 0.868777 0.495203 681.29 93.0689)" stroke="#494949"/>
<path d="M648.642 134.379L660.872 127.408M670.657 121.83L680.092 116.452M688.479 111.672L702.807 103.505M653.123 136.933L659.762 133.149M667.8 128.568L680.38 121.397M688.417 116.816L696.804 112.035M706.239 106.657L715.675 101.279" stroke="black"/>
<path d="M644.801 132.19L708.222 96.0401" stroke="#494949" stroke-width="0.5"/>
<path d="M656.964 139.123L720.385 102.973" stroke="#494949" stroke-width="0.5"/>
<path d="M670.664 138.246L724.728 107.43M669.199 143.126L728.276 109.452M672.746 145.148L709.625 124.127M681.306 144.313L735.371 113.496M679.841 149.192L738.918 115.518M683.389 151.214L742.466 117.54M686.936 153.236L746.013 119.562M690.484 155.258L749.561 121.584M694.031 157.28L747.022 127.076M702.592 156.445L756.656 125.629M701.126 161.324L760.203 127.651M704.674 163.346L763.751 129.673M708.221 165.369L754.409 139.042" stroke="black"/>
<rect width="81.391" height="105.808" rx="4" transform="matrix(0.868777 -0.495203 0.868777 0.495203 65 361.917)" fill="#ECECEC"/>
<rect width="81.391" height="105.808" rx="4" transform="matrix(0.868777 -0.495203 0.868777 0.495203 65 360.305)" fill="white"/>
<path d="M96.4707 360.981C97.2784 361.563 97.6466 362.159 97.5754 362.769C97.5041 363.373 96.9973 363.944 96.055 364.481C95.0335 365.064 93.8477 365.322 92.4976 365.257C91.1514 365.189 89.8647 364.805 88.6373 364.106L87.8059 363.632C87.0021 363.174 86.4379 362.69 86.1133 362.18C85.7926 361.667 85.7332 361.168 85.9351 360.683C86.1331 360.196 86.5785 359.755 87.2714 359.36C88.1899 358.836 89.1837 358.563 90.2527 358.54C91.3177 358.516 92.3491 358.736 93.3469 359.201L92.2007 359.854C91.4128 359.518 90.6981 359.356 90.0567 359.37C89.4193 359.381 88.8036 359.556 88.2097 359.895C87.4812 360.31 87.1783 360.789 87.3011 361.333C87.4278 361.875 87.988 362.429 88.9818 362.995L89.8192 363.473C90.7575 364.008 91.6998 364.321 92.6461 364.414C93.5923 364.506 94.4178 364.352 95.1226 363.95C95.7561 363.589 96.0986 363.231 96.15 362.877C96.2015 362.518 95.9263 362.104 95.3245 361.634L96.4707 360.981ZM102.125 359.16L97.4625 353.686L98.7097 352.975L104.15 359.732L103.14 360.308L91.292 357.203L92.5332 356.496L102.125 359.16Z" fill="#494949"/>
<mask id="path-123-inside-7" fill="white">
<path d="M148.837 335.793C146.879 334.676 144.223 334.049 141.453 334.049C138.683 334.049 136.027 334.676 134.068 335.793C132.11 336.909 131.009 338.423 131.009 340.002C131.009 341.581 132.11 343.095 134.068 344.211L141.453 340.002L148.837 335.793Z"/>
</mask>
<path d="M148.837 335.793C146.879 334.676 144.223 334.049 141.453 334.049C138.683 334.049 136.027 334.676 134.068 335.793C132.11 336.909 131.009 338.423 131.009 340.002C131.009 341.581 132.11 343.095 134.068 344.211L141.453 340.002L148.837 335.793Z" stroke="#494949" stroke-width="2" mask="url(#path-123-inside-7)"/>
<circle r="4" transform="matrix(0.868777 -0.495203 0.868777 0.495203 129.29 333.069)" stroke="#494949"/>
<path d="M96.6416 374.379L108.872 367.408M118.657 361.83L128.092 356.452M136.479 351.672L150.807 343.505M101.123 376.933L107.762 373.149M115.8 368.568L128.38 361.397M136.417 356.816L144.804 352.035M154.239 346.657L163.675 341.279" stroke="black"/>
<path d="M92.8008 372.19L156.222 336.04" stroke="#494949" stroke-width="0.5"/>
<path d="M104.964 379.123L168.385 342.973" stroke="#494949" stroke-width="0.5"/>
<path d="M118.664 378.246L172.728 347.43M117.199 383.126L176.276 349.452M120.746 385.148L157.625 364.127M129.306 384.313L183.371 353.496M127.841 389.192L186.918 355.518M131.389 391.214L190.466 357.54M134.936 393.236L194.013 359.562M138.484 395.258L197.561 361.584M142.031 397.28L195.022 367.076M150.592 396.445L204.656 365.629M149.126 401.324L208.203 367.651M152.674 403.346L211.751 369.673M156.221 405.369L202.409 379.042" stroke="black"/>
<rect width="81.391" height="105.808" rx="4" transform="matrix(0.868777 -0.495203 0.868777 0.495203 526 409.917)" fill="#ECECEC"/>
<rect width="81.391" height="105.808" rx="4" transform="matrix(0.868777 -0.495203 0.868777 0.495203 526 408.305)" fill="white"/>
<path d="M557.471 408.981C558.278 409.563 558.647 410.159 558.575 410.769C558.504 411.373 557.997 411.944 557.055 412.481C556.034 413.064 554.848 413.322 553.498 413.257C552.151 413.189 550.865 412.805 549.637 412.106L548.806 411.632C548.002 411.174 547.438 410.69 547.113 410.18C546.793 409.667 546.733 409.168 546.935 408.683C547.133 408.196 547.578 407.755 548.271 407.36C549.19 406.836 550.184 406.563 551.253 406.54C552.318 406.516 553.349 406.736 554.347 407.201L553.201 407.854C552.413 407.518 551.698 407.356 551.057 407.37C550.419 407.381 549.804 407.556 549.21 407.895C548.481 408.31 548.178 408.789 548.301 409.333C548.428 409.875 548.988 410.429 549.982 410.995L550.819 411.473C551.757 412.008 552.7 412.321 553.646 412.414C554.592 412.506 555.418 412.352 556.123 411.95C556.756 411.589 557.099 411.231 557.15 410.877C557.201 410.518 556.926 410.104 556.325 409.634L557.471 408.981ZM563.125 407.16L558.463 401.686L559.71 400.975L565.15 407.732L564.14 408.308L552.292 405.203L553.533 404.496L563.125 407.16Z" fill="#494949"/>
<mask id="path-132-inside-8" fill="white">
<path d="M609.836 383.793C607.878 382.676 605.222 382.049 602.452 382.049C599.682 382.049 597.026 382.676 595.067 383.793C593.109 384.909 592.008 386.423 592.008 388.002C592.008 389.581 593.109 391.095 595.067 392.211L602.452 388.002L609.836 383.793Z"/>
</mask>
<path d="M609.836 383.793C607.878 382.676 605.222 382.049 602.452 382.049C599.682 382.049 597.026 382.676 595.067 383.793C593.109 384.909 592.008 386.423 592.008 388.002C592.008 389.581 593.109 391.095 595.067 392.211L602.452 388.002L609.836 383.793Z" stroke="#494949" stroke-width="2" mask="url(#path-132-inside-8)"/>
<circle r="4" transform="matrix(0.868777 -0.495203 0.868777 0.495203 590.29 381.069)" stroke="#494949"/>
<path d="M557.642 422.379L569.872 415.408M579.657 409.83L589.092 404.452M597.479 399.672L611.807 391.505M562.123 424.933L568.762 421.149M576.8 416.568L589.38 409.397M597.417 404.816L605.804 400.035M615.239 394.657L624.675 389.279" stroke="black"/>
<path d="M553.801 420.19L617.222 384.04" stroke="#494949" stroke-width="0.5"/>
<path d="M565.964 427.123L629.385 390.973" stroke="#494949" stroke-width="0.5"/>
<path d="M579.664 426.246L633.728 395.43M578.199 431.126L637.276 397.452M581.746 433.148L618.625 412.127M590.306 432.313L644.371 401.496M588.841 437.192L647.918 403.518M592.389 439.214L651.466 405.54M595.936 441.236L655.013 407.562M599.484 443.258L658.561 409.584M603.031 445.28L656.022 415.076M611.592 444.445L665.656 413.629M610.126 449.324L669.203 415.651M613.674 451.346L672.751 417.673M617.221 453.369L663.409 427.042" stroke="black"/>
</svg>
