<svg width="1600" height="1291" viewBox="0 0 1600 1291" fill="none" xmlns="http://www.w3.org/2000/svg">
<mask id="mask0" mask-type="alpha" maskUnits="userSpaceOnUse" x="0" y="0" width="1601" height="1291">
<rect width="1601" height="1291" fill="#C4C4C4"/>
</mask>
<g mask="url(#mask0)">
<path d="M751.211 754.191L750.211 1047.22" stroke="#FFF8F3" stroke-width="5"/>
<path d="M712.782 734.977L711.782 1047.22" stroke="#FFF8F3" stroke-width="5"/>
<path d="M679.155 710.958L678.155 1047.22" stroke="#FFF8F3" stroke-width="5"/>
<path d="M640.725 686.939L639.725 1047.22" stroke="#FFF8F3" stroke-width="5"/>
<path d="M602.295 662.92L601.295 1047.22" stroke="#FFF8F3" stroke-width="5"/>
<path d="M568.67 634.097L567.67 1047.22" stroke="#FFF8F3" stroke-width="5"/>
<path d="M530.238 610.079L529.238 1047.22" stroke="#FFF8F3" stroke-width="5"/>
<path d="M490.808 581.256L490.808 1047.22" stroke="#FFF8F3" stroke-width="5"/>
<path d="M1043.24 893.501L1043.24 1047.22" stroke="#FFF8F3" stroke-width="5"/>
<path d="M1004.81 883.894L1004.81 1047.22" stroke="#FFF8F3" stroke-width="5"/>
<path d="M971.185 862.277V1047.22" stroke="#FFF8F3" stroke-width="5"/>
<path d="M933.754 850.267L932.754 1047.22" stroke="#FFF8F3" stroke-width="5"/>
<path d="M895.325 831.052L894.325 1047.22" stroke="#FFF8F3" stroke-width="5"/>
<path d="M861.698 811.836L860.698 1047.22" stroke="#FFF8F3" stroke-width="5"/>
<path d="M823.269 792.622L822.269 1047.22" stroke="#FFF8F3" stroke-width="5"/>
<path d="M789.642 778.211L788.642 1047.22" stroke="#FFF8F3" stroke-width="5"/>
<path d="M457.182 552.434L457.182 1047.22" stroke="#FFF8F3" stroke-width="5"/>
<path d="M418.751 518.807L418.751 1047.22" stroke="#FFF8F3" stroke-width="5"/>
<path d="M385.126 485.181L385.126 1047.22" stroke="#FFF8F3" stroke-width="5"/>
<path d="M346.695 451.554L346.695 1047.22" stroke="#FFF8F3" stroke-width="5"/>
<path d="M308.265 417.928L308.265 1047.22" stroke="#FFF8F3" stroke-width="5"/>
<path d="M274.639 379.498L274.639 1047.22" stroke="#FFF8F3" stroke-width="5"/>
<path d="M236.208 341.068L236.208 1047.22" stroke="#FFF8F3" stroke-width="5"/>
<path d="M1337.27 984.772L1336.27 1047.22" stroke="#FFF8F3" stroke-width="5"/>
<path d="M1298.84 975.166L1297.84 1047.22" stroke="#FFF8F3" stroke-width="5"/>
<path d="M1264.21 965.558L1264.21 1047.22" stroke="#FFF8F3" stroke-width="5"/>
<path d="M1226.79 955.95L1225.79 1047.22" stroke="#FFF8F3" stroke-width="5"/>
<path d="M1188.36 946.343L1187.36 1047.22" stroke="#FFF8F3" stroke-width="5"/>
<path d="M1154.73 931.931L1153.73 1047.22" stroke="#FFF8F3" stroke-width="5"/>
<path d="M1115.3 922.324L1115.3 1047.22" stroke="#FFF8F3" stroke-width="5"/>
<path d="M1082.67 907.913L1081.67 1047.22" stroke="#FFF8F3" stroke-width="5"/>
<path d="M20.0391 28.8228C193.419 365.882 795.474 1041.44 1816.65 1047.22" stroke="#FFF8F3" stroke-width="20"/>
<path d="M-4346.59 40.832C-4095.99 324.254 -3312.34 891.099 -2182.49 891.099C-1052.64 891.099 -248.172 324.254 12.8326 40.832" stroke="#FFF8F3" stroke-width="20"/>
<rect x="-6023.1" y="1003.99" width="7686.03" height="81.6641" fill="#FFF8F3"/>
<rect x="-6023.1" y="1018.4" width="7686.03" height="52.8415" fill="#FEE9DA"/>
<rect x="-239.364" y="807.031" width="485.181" height="979.969" rx="1" fill="#FFF8F3"/>
<rect x="-186.522" y="62.449" width="379.498" height="1421.92" rx="1" fill="#FFF8F3"/>
<rect x="-205.738" y="504.394" width="422.732" height="979.969" rx="1" fill="#FFF8F3"/>
<rect width="191.746" height="710.958" rx="1" transform="matrix(-1 0 0 1 101.704 0)" fill="#FFF8F3"/>
<rect x="-224.954" y="821.444" width="456.358" height="662.92" rx="1" fill="#FEE9DA"/>
<rect x="-172.113" y="76.8604" width="350.675" height="1330.64" rx="1" fill="#FEE9DA"/>
<rect x="-191.329" y="518.807" width="393.909" height="888.697" rx="1" fill="#FEE9DA"/>
<rect width="163.328" height="686.939" rx="1" transform="matrix(-1 0 0 1 87.29 14.4114)" fill="#FEE9DA"/>
<rect x="-210.542" y="835.856" width="427.535" height="648.509" rx="1" fill="#FFF8F3"/>
<rect x="-157.701" y="91.2717" width="321.852" height="1244.18" rx="1" fill="#FFF8F3"/>
<rect x="-176.917" y="533.218" width="365.086" height="802.229" rx="1" fill="#FFF8F3"/>
<rect width="134.506" height="643.705" rx="1" transform="matrix(-1 0 0 1 72.8804 28.8228)" fill="#FFF8F3"/>
<rect x="-205.738" y="547.63" width="422.732" height="52.8415" fill="#FEE9DA"/>
<rect x="-191.328" y="547.63" width="393.909" height="52.8415" fill="#FFF8F3"/>
<rect x="-176.917" y="547.63" width="365.086" height="52.8415" fill="#FEE9DA"/>
<rect x="-186.522" y="105.683" width="379.498" height="52.8415" fill="#FEE9DA"/>
<rect x="-172.111" y="105.683" width="350.675" height="52.8415" fill="#FFF8F3"/>
<rect x="-157.698" y="105.683" width="321.852" height="52.8415" fill="#FEE9DA"/>
<rect x="-239.364" y="850.267" width="485.181" height="52.8415" fill="#FEE9DA"/>
<rect x="-224.952" y="850.267" width="456.358" height="52.8415" fill="#FFF8F3"/>
<rect x="-210.54" y="850.267" width="427.535" height="52.8415" fill="#FEE9DA"/>
<rect x="-13.5864" y="225.777" width="38.4301" height="254.6" rx="1" fill="#F98282"/>
<rect x="-13.5864" y="648.509" width="38.4301" height="153.721" rx="1" fill="#F98282"/>
<path d="M294.521 1273.06C276.619 1280.02 259.182 1279.37 248.416 1279.35L247.878 1279.35C231.219 1279.36 206.811 1279.37 208.668 1270.55C211.053 1259.22 193.167 1264.25 170.512 1273.06C152.61 1280.02 135.174 1279.37 124.407 1279.35L123.867 1279.35C107.232 1279.36 83.9945 1279.37 85.8521 1270.55C88.2369 1259.22 69.1587 1264.25 46.5032 1273.06C28.3789 1280.11 10.7315 1279.35 0 1279.35V1302H3855V1279.35L3853.64 1279.35C3836.69 1279.36 3813.01 1279.37 3814.9 1270.55C3817.33 1259.22 3797.89 1264.25 3774.8 1273.06C3756.72 1279.96 3739.09 1279.38 3728.1 1279.35C3711.29 1279.35 3689.06 1279.1 3690.89 1270.55C3693.32 1259.22 3673.88 1264.25 3650.79 1273.06C3632.71 1279.96 3615.08 1279.38 3604.09 1279.35C3587.28 1279.35 3565.05 1279.1 3566.88 1270.55C3569.31 1259.22 3549.87 1264.25 3526.79 1273.06C3508.54 1280.02 3490.77 1279.37 3479.8 1279.35L3479.25 1279.35C3462.62 1279.36 3439.38 1279.37 3441.24 1270.55C3443.62 1259.22 3424.55 1264.25 3401.89 1273.06C3383.99 1280.02 3366.55 1279.37 3355.79 1279.35L3355.25 1279.35C3338.61 1279.36 3315.37 1279.37 3317.23 1270.55C3319.62 1259.22 3300.54 1264.25 3277.88 1273.06C3259.98 1280.02 3242.54 1279.37 3231.78 1279.35L3231.24 1279.35C3214.6 1279.36 3191.37 1279.37 3193.22 1270.55C3195.61 1259.22 3176.53 1264.25 3153.87 1273.06C3135.97 1280.02 3118.54 1279.37 3107.77 1279.35L3107.23 1279.35C3090.59 1279.36 3067.36 1279.37 3069.21 1270.55C3071.6 1259.22 3052.52 1264.25 3029.87 1273.06C3011.98 1280.01 2994.56 1279.37 2983.79 1279.35L2983.19 1279.35C2966.24 1279.36 2942.56 1279.37 2944.46 1270.55C2946.89 1259.22 2927.44 1264.25 2904.36 1273.06C2886.27 1279.96 2868.65 1279.38 2857.66 1279.35C2840.85 1279.35 2818.61 1279.1 2820.45 1270.55C2822.88 1259.22 2803.44 1264.25 2780.35 1273.06C2762.26 1279.96 2744.64 1279.38 2733.65 1279.35C2716.84 1279.35 2694.6 1279.1 2696.44 1270.55C2698.87 1259.22 2679.43 1264.25 2656.34 1273.06C2638.25 1279.96 2620.63 1279.38 2609.64 1279.35C2592.83 1279.35 2570.59 1279.1 2572.43 1270.55C2574.86 1259.22 2555.42 1264.25 2532.33 1273.06C2514.09 1280.02 2496.32 1279.37 2485.35 1279.35L2484.8 1279.35C2468.17 1279.36 2444.93 1279.37 2446.79 1270.55C2449.17 1259.22 2430.09 1264.25 2407.44 1273.06C2389.54 1280.02 2372.1 1279.37 2361.33 1279.35L2360.79 1279.35C2344.16 1279.36 2320.92 1279.37 2322.78 1270.55C2325.16 1259.22 2306.08 1264.25 2283.43 1273.06C2265.53 1280.02 2248.09 1279.37 2237.32 1279.35L2236.78 1279.35C2220.15 1279.36 2196.91 1279.37 2198.77 1270.55C2201.15 1259.22 2182.08 1264.25 2159.42 1273.06C2141.52 1280.02 2124.08 1279.37 2113.32 1279.35L2112.77 1279.35C2096.14 1279.36 2072.9 1279.37 2074.76 1270.55C2077.15 1259.22 2058.07 1264.25 2035.41 1273.06C2017.53 1280.01 2000.1 1279.37 1989.34 1279.35L1988.74 1279.35C1971.79 1279.36 1948.11 1279.37 1950 1270.55C1952.43 1259.22 1932.99 1264.25 1909.9 1273.06C1891.82 1279.96 1874.19 1279.38 1863.2 1279.35C1846.39 1279.35 1824.16 1279.1 1825.99 1270.55C1828.42 1259.22 1808.98 1264.25 1785.9 1273.06C1767.81 1279.96 1750.19 1279.38 1739.19 1279.35C1722.39 1279.35 1700.15 1279.1 1701.98 1270.55C1704.41 1259.22 1684.97 1264.25 1661.89 1273.06C1643.8 1279.96 1626.18 1279.38 1615.18 1279.35C1598.38 1279.35 1576.14 1279.1 1577.98 1270.55C1580.41 1259.22 1560.96 1264.25 1537.88 1273.06C1519.63 1280.02 1501.86 1279.37 1490.89 1279.35L1490.35 1279.35C1473.71 1279.36 1450.47 1279.37 1452.33 1270.55C1454.72 1259.22 1435.64 1264.25 1412.98 1273.06C1395.08 1280.02 1377.65 1279.37 1366.88 1279.35L1366.34 1279.35C1349.7 1279.36 1326.47 1279.37 1328.32 1270.55C1330.71 1259.22 1311.63 1264.25 1288.97 1273.06C1271.07 1280.02 1253.64 1279.37 1242.87 1279.35L1242.33 1279.35C1225.7 1279.36 1202.46 1279.37 1204.31 1270.55C1206.7 1259.22 1187.62 1264.25 1164.97 1273.06C1147.06 1280.02 1129.63 1279.37 1118.86 1279.35L1118.32 1279.35C1101.69 1279.36 1078.45 1279.37 1080.31 1270.55C1082.69 1259.22 1063.61 1264.25 1040.96 1273.06C1023.07 1280.01 1005.65 1279.37 994.882 1279.35L994.287 1279.35C977.336 1279.36 953.655 1279.37 955.548 1270.55C957.978 1259.22 938.536 1264.25 915.45 1273.06C897.362 1279.96 879.74 1279.38 868.747 1279.35C851.94 1279.35 829.703 1279.1 831.539 1270.55C833.97 1259.22 814.528 1264.25 791.441 1273.06C773.353 1279.96 755.731 1279.38 744.739 1279.35C727.932 1279.35 705.694 1279.1 707.531 1270.55C709.961 1259.22 690.519 1264.25 667.432 1273.06C649.344 1279.96 631.723 1279.38 620.73 1279.35C603.922 1279.35 581.685 1279.1 583.522 1270.55C585.952 1259.22 566.511 1264.25 543.424 1273.06C525.18 1280.02 507.411 1279.37 496.439 1279.35L495.893 1279.35C479.258 1279.36 456.021 1279.37 457.878 1270.55C460.263 1259.22 441.185 1264.25 418.529 1273.06C400.627 1280.02 383.191 1279.37 372.425 1279.35C355.758 1279.36 332.122 1278.92 334 1270C336.385 1258.68 317.176 1264.25 294.521 1273.06Z" fill="#FFF8F3"/>
</g>
</svg>
