<svg width="141" height="55" viewBox="0 0 141 55" fill="none" xmlns="http://www.w3.org/2000/svg">
<path d="M50.9341 45.9029V17.8451C50.9341 17.1523 51.1825 16.5981 51.6795 16.1824C52.2119 15.7206 52.8862 15.4896 53.7026 15.4896C54.519 15.4896 55.1934 15.7206 55.7258 16.1824C56.2582 16.5981 56.5244 17.1523 56.5244 17.8451V45.9029C56.5244 46.5033 56.2404 47.0575 55.6725 47.5656C55.1401 48.0737 54.4834 48.3277 53.7026 48.3277C52.9218 48.3277 52.2651 48.0737 51.7327 47.5656C51.2003 47.0575 50.9341 46.5033 50.9341 45.9029Z" fill="white"/>
<path d="M53.729 17.3484L54.1171 17.0331L53.6579 16.4679L53.2954 17.0995L53.729 17.3484ZM24.6563 39.6535V45.5395H25.6563V39.6535H24.6563ZM27.1409 38.7241V45.5395H28.1409V38.7241H27.1409ZM29.6255 37.7947V45.5395H30.6255V37.7947H29.6255ZM37.0792 34.387V45.5395H38.0792V34.387H37.0792ZM39.5638 32.838V45.5395H40.5638V32.838H39.5638ZM42.0484 30.9793V45.5395H43.0484V30.9793H42.0484ZM44.533 28.8107V45.5395H45.533V28.8107H44.533ZM47.0176 26.0226V45.5395H48.0176V26.0226H47.0176ZM49.5021 22.9247V45.5395H50.5021V22.9247H49.5021ZM51.9867 19.5169V45.5395H52.9867V19.5169H51.9867ZM54.4713 18.8974V45.5395H55.4713V18.8974H54.4713ZM56.9559 21.6855V45.5395H57.9559V21.6855H56.9559ZM59.4405 24.1638V45.5395H60.4405V24.1638H59.4405ZM61.9251 26.3324V45.5395H62.9251V26.3324H61.9251ZM64.4096 28.1911V45.5395H65.4096V28.1911H64.4096ZM19.6872 41.2024V45.5395H20.6872V41.2024H19.6872ZM22.1718 40.5829V45.5395H23.1718V40.5829H22.1718ZM14.718 42.4416V45.5395H15.718V42.4416H14.718ZM17.2026 41.822V45.5395H18.2026V41.822H17.2026ZM9.74885 43.6808V45.5395H10.7488V43.6808H9.74885ZM12.2334 43.0612V45.5395H13.2334V43.0612H12.2334ZM4.77968 44.6102V45.5395H5.77968V44.6102H4.77968ZM7.26426 43.9906V45.5395H8.26426V43.9906H7.26426ZM66.8942 30.0499V45.5395H67.8942V30.0499H66.8942ZM69.3788 31.5989V45.5395H70.3788V31.5989H69.3788ZM71.8634 33.1478V45.5395H72.8634V33.1478H71.8634ZM74.348 34.387V45.5395H75.348V34.387H74.348ZM76.8325 35.3164V45.5395H77.8325V35.3164H76.8325ZM79.3171 36.2458V45.5395H80.3171V36.2458H79.3171ZM81.8017 37.1751V45.5395H82.8017V37.1751H81.8017ZM84.2863 37.7947V45.5395H85.2863V37.7947H84.2863ZM86.7709 38.4143V45.5395H87.7709V38.4143H86.7709ZM89.2554 39.0339V45.5395H90.2554V39.0339H89.2554ZM91.74 39.6535V45.5395H92.74V39.6535H91.74ZM94.2246 40.2731V45.5395H95.2246V40.2731H94.2246ZM96.7092 40.5829V45.5395H97.7092V40.5829H96.7092ZM99.1938 40.8926V45.5395H100.194V40.8926H99.1938ZM101.678 41.2024V45.5395H102.678V41.2024H101.678ZM104.163 41.5122V45.5395H105.163V41.5122H104.163ZM106.648 41.822V45.5395H107.648V41.822H106.648ZM109.132 42.1318V45.5395H110.132V42.1318H109.132ZM111.617 42.4416V45.5395H112.617V42.4416H111.617ZM114.101 42.7514V45.5395H115.101V42.7514H114.101ZM116.586 43.0612V45.5395H117.586V43.0612H116.586ZM119.07 43.0612V45.5395H120.07V43.0612H119.07ZM121.555 43.371V45.5395H122.555V43.371H121.555ZM124.04 43.6808V45.5395H125.04V43.6808H124.04ZM126.524 43.9906V45.5395H127.524V43.9906H126.524ZM129.009 44.3004V45.5395H130.009V44.3004H129.009ZM131.493 44.6102V45.5395H132.493V44.6102H131.493ZM133.978 44.92V45.5395H134.978V44.92H133.978ZM32.1101 36.8653V45.5395H33.1101V36.8653H32.1101ZM34.5947 35.6262V45.5395H35.5947V35.6262H34.5947ZM0.713626 46.0309C15.47 43.252 26.2811 40.5981 34.6737 36.4126C43.0926 32.214 49.0618 26.4832 54.1627 17.5973L53.2954 17.0995C48.2849 25.8279 42.4564 31.4138 34.2274 35.5177C25.9719 39.6348 15.2847 42.2693 0.528561 45.0482L0.713626 46.0309ZM53.3409 17.6637C64.4203 31.3011 76.7173 36.9718 90.9401 39.9427C98.0386 41.4254 105.62 42.2365 113.758 43.0326C121.903 43.8293 130.61 44.6113 139.993 46.0339L140.143 45.0452C130.727 43.6177 121.99 42.833 113.855 42.0373C105.715 41.241 98.1832 40.434 91.1446 38.9638C77.0934 36.0288 65.0206 30.4541 54.1171 17.0331L53.3409 17.6637Z" fill="white"/>
<path d="M0 44.9643C0 44.0843 1.00203 43.371 2.2381 43.371H138.762C139.998 43.371 141 44.0843 141 44.9643V47.3541C141 48.234 139.998 48.9473 138.762 48.9473H2.2381C1.00203 48.9473 0 48.234 0 47.3541V44.9643Z" fill="white"/>
<path d="M0.335938 40.2607V3.34574C0.335938 2.75094 0.597048 2.28625 1.11927 1.95167C1.6415 1.57992 2.25697 1.39404 2.9657 1.39404H13.149C16.5808 1.39404 19.3225 2.10037 21.374 3.51303C23.4256 4.92568 24.4514 7.43501 24.4514 11.041C24.4514 15.6507 22.8661 18.6619 19.6955 20.0746C21.5978 20.8181 23.0339 21.8961 24.0038 23.3088C24.9737 24.6842 25.4586 26.7103 25.4586 29.3869V30.4464C25.4586 34.5357 24.4514 37.5097 22.4371 39.3684C20.4228 41.2272 17.7184 42.1566 14.324 42.1566H2.9657C2.18237 42.1566 1.54824 41.9707 1.06332 41.599C0.578398 41.2272 0.335938 40.7811 0.335938 40.2607ZM6.21094 36.9149H13.205C17.4201 36.9149 19.5276 34.61 19.5276 30.0003V29.1081C19.5276 26.7289 18.9868 25.0188 17.905 23.9779C16.8606 22.9371 15.2939 22.4166 13.205 22.4166H6.21094V36.9149ZM6.21094 17.7325H12.8693C16.6368 17.7325 18.5205 15.818 18.5205 11.989C18.5205 8.42014 16.5994 6.63574 12.7574 6.63574H6.21094V17.7325Z" fill="white"/>
<path d="M30.647 40.2049V17.621C30.647 17.0634 30.9082 16.6173 31.4303 16.2827C31.9898 15.911 32.6799 15.7251 33.5005 15.7251C34.2466 15.7251 34.8808 15.911 35.4029 16.2827C35.9252 16.6173 36.1863 17.0634 36.1863 17.621V20.0746C36.8204 18.7734 37.7716 17.6768 39.0398 16.7846C40.3454 15.8552 41.7629 15.3905 43.2922 15.3905H45.0827C45.6796 15.3905 46.2017 15.6507 46.6494 16.1712C47.097 16.6544 47.3208 17.2493 47.3208 17.9556C47.3208 18.6619 47.097 19.2753 46.6494 19.7958C46.2017 20.3162 45.6796 20.5764 45.0827 20.5764H43.2922C41.5017 20.5764 39.9165 21.3385 38.5363 22.8627C37.1934 24.3869 36.522 26.3571 36.522 28.7736V40.2049C36.522 40.6882 36.2236 41.1343 35.6267 41.5432C35.0299 41.9522 34.3213 42.1566 33.5005 42.1566C32.6799 42.1566 31.9898 41.9522 31.4303 41.5432C30.9082 41.1343 30.647 40.6882 30.647 40.2049Z" fill="white"/>
<path d="M61.8232 31.5059V26.3758C61.8232 23.3646 62.7931 20.7809 64.7328 18.6247C66.7098 16.4686 69.0784 15.3905 71.8387 15.3905C73.48 15.3905 74.9347 15.7995 76.203 16.6173C77.4712 17.4351 78.4411 18.4388 79.1125 19.6285V1.89593C79.1125 1.3383 79.3923 0.892203 79.9518 0.557627C80.5113 0.185876 81.22 0 82.078 0C82.936 0 83.626 0.185876 84.1482 0.557627C84.7078 0.892203 84.9875 1.3383 84.9875 1.89593V40.2049C84.9875 40.6882 84.7078 41.1343 84.1482 41.5432C83.5887 41.9522 82.8986 42.1566 82.078 42.1566C81.3693 42.1566 80.7351 41.9522 80.1756 41.5432C79.6534 41.1343 79.3923 40.6882 79.3923 40.2049V38.2532C78.7955 39.4429 77.7697 40.4651 76.3149 41.3202C74.8974 42.1752 73.3494 42.6027 71.6709 42.6027C69.0598 42.6027 66.7657 41.4875 64.7887 39.2569C62.8117 36.9893 61.8232 34.4056 61.8232 31.5059ZM67.6982 31.5059C67.6982 33.0301 68.2578 34.4056 69.3768 35.6324C70.4959 36.822 71.82 37.4168 73.3494 37.4168C74.8042 37.4168 76.1284 36.8591 77.322 35.7439C78.5156 34.5915 79.1125 33.6063 79.1125 32.7885V26.3758C79.1125 24.6657 78.5343 23.2717 77.378 22.1936C76.2217 21.1154 74.8974 20.5764 73.4054 20.5764C71.876 20.5764 70.5331 21.1712 69.3768 22.3608C68.2578 23.5505 67.6982 24.8888 67.6982 26.3758V31.5059Z" fill="white"/>
<path d="M89.1748 47.008C89.1748 44.4058 90.6109 42.4168 93.4831 41.0414C91.7299 40.2978 90.8534 39.0711 90.8534 37.361C90.8534 35.7253 91.7859 34.3127 93.651 33.1231C91.4502 31.413 90.3498 29.071 90.3498 26.097V24.5356C90.3498 21.859 91.301 19.6656 93.2034 17.9556C95.143 16.2456 97.6609 15.3905 100.757 15.3905C103.368 15.3905 105.531 16.0225 107.247 17.2865C108.329 14.7958 109.541 13.5504 110.884 13.5504C111.593 13.5504 112.171 13.7734 112.619 14.2195C113.066 14.6285 113.29 15.0746 113.29 15.5578C113.29 16.1526 112.973 16.6173 112.339 16.9519C111.145 17.4724 110.213 18.2158 109.541 19.1824C110.735 20.6694 111.332 22.4538 111.332 24.5356V26.097C111.332 28.7736 110.343 30.9855 108.366 32.7327C106.389 34.48 103.853 35.3536 100.757 35.3536C99.3022 35.3536 98.0153 35.1305 96.8962 34.6844C96.1874 35.1677 95.8331 35.6882 95.8331 36.2458C95.8331 36.9893 96.4112 37.5283 97.5677 37.8629C98.7612 38.1975 100.179 38.4577 101.82 38.6436C103.499 38.8295 105.158 39.1083 106.8 39.48C108.478 39.8146 109.896 40.5581 111.052 41.7105C112.246 42.8629 112.842 44.3871 112.842 46.2831C112.842 49.0712 111.724 51.1716 109.486 52.5843C107.285 53.9969 104.487 54.7032 101.093 54.7032C97.6981 54.7032 94.8633 53.9969 92.5879 52.5843C90.3124 51.2088 89.1748 49.35 89.1748 47.008ZM94.7141 46.3946C94.7141 47.7329 95.2922 48.7924 96.4486 49.5731C97.6422 50.3909 99.1716 50.7998 101.037 50.7998C102.864 50.7998 104.338 50.4095 105.457 49.6288C106.576 48.8481 107.136 47.7887 107.136 46.4504C107.136 45.5953 106.874 44.8704 106.352 44.2756C105.83 43.718 105.047 43.2905 104.002 42.9931C102.995 42.7329 102.118 42.547 101.372 42.4354C100.664 42.361 99.6938 42.2868 98.4629 42.2124C95.9636 43.1417 94.7141 44.5358 94.7141 46.3946ZM96.0569 26.0412C96.0569 27.6769 96.4859 29.0153 97.3438 30.0561C98.2017 31.097 99.3767 31.6175 100.869 31.6175C102.324 31.6175 103.48 31.1156 104.338 30.1119C105.196 29.071 105.625 27.7327 105.625 26.097V24.5356C105.625 22.9743 105.196 21.6917 104.338 20.688C103.48 19.6471 102.305 19.1266 100.813 19.1266C99.3581 19.1266 98.2017 19.6471 97.3438 20.688C96.4859 21.6917 96.0569 22.9743 96.0569 24.5356V26.0412Z" fill="white"/>
<path d="M116.082 31.5059V26.2085C116.082 23.2717 117.219 20.7437 119.495 18.6247C121.77 16.4686 124.512 15.3905 127.72 15.3905C130.778 15.3905 133.389 16.3756 135.553 18.3459C137.754 20.279 138.855 22.7326 138.855 25.7066C138.855 26.8219 138.724 27.7327 138.463 28.439C138.201 29.1081 137.792 29.5914 137.232 29.8888C136.673 30.149 136.15 30.3163 135.665 30.3907C135.18 30.4651 134.546 30.5022 133.763 30.5022H121.957V31.7847C121.957 33.6435 122.628 35.1305 123.971 36.2458C125.314 37.3239 127.067 37.8629 129.231 37.8629C130.759 37.8629 132.196 37.5097 133.539 36.8034C134.919 36.0971 135.758 35.7439 136.057 35.7439C136.69 35.7439 137.232 36.0413 137.68 36.6361C138.127 37.2309 138.351 37.8071 138.351 38.3647C138.351 39.2941 137.456 40.2421 135.665 41.2086C133.875 42.138 131.674 42.6027 129.063 42.6027C125.258 42.6027 122.143 41.5804 119.719 39.5358C117.294 37.4912 116.082 34.8146 116.082 31.5059ZM121.957 26.8776H131.245C132.065 26.8776 132.606 26.7661 132.868 26.543C133.165 26.32 133.315 25.8739 133.315 25.2047C133.315 23.7178 132.774 22.4537 131.693 21.4129C130.611 20.372 129.268 19.8515 127.664 19.8515C126.098 19.8515 124.755 20.3534 123.636 21.3571C122.517 22.3237 121.957 23.569 121.957 25.0932V26.8776Z" fill="white"/>
</svg>
