<svg width="1600" height="505" viewBox="0 0 1600 505" fill="none" xmlns="http://www.w3.org/2000/svg">
<mask id="mask0" mask-type="alpha" maskUnits="userSpaceOnUse" x="-2" y="0" width="1603" height="505">
<rect x="-2" width="1603" height="505" fill="#C4C4C4"/>
</mask>
<g mask="url(#mask0)">
<path d="M287.245 212.934L287.245 383.634" stroke="#F46666" stroke-width="2.5"/>
<path d="M273.168 207.655L273.168 383.634" stroke="#F46666" stroke-width="2.5"/>
<path d="M260.848 200.616L261.848 383.634" stroke="#F46666" stroke-width="2.5"/>
<path d="M246.77 193.576L246.77 383.633" stroke="#F46666" stroke-width="2.5"/>
<path d="M232.692 186.538L232.692 383.634" stroke="#F46666" stroke-width="2.5"/>
<path d="M218.614 177.739L218.614 383.634" stroke="#F46666" stroke-width="2.5"/>
<path d="M206.295 170.699L206.295 383.633" stroke="#F46666" stroke-width="2.5"/>
<path d="M192.217 161.901L192.217 383.634" stroke="#F46666" stroke-width="2.5"/>
<path d="M396.353 260.448L397.353 383.633" stroke="#F46666" stroke-width="2.5"/>
<path d="M382.274 251.65L382.274 383.634" stroke="#F46666" stroke-width="2.5"/>
<path d="M368.195 249.89L368.195 383.634" stroke="#F46666" stroke-width="2.5"/>
<path d="M355.876 242.851L356.876 383.634" stroke="#F46666" stroke-width="2.5"/>
<path d="M341.799 239.331L342.799 383.633" stroke="#F46666" stroke-width="2.5"/>
<path d="M327.721 232.292L328.721 383.633" stroke="#F46666" stroke-width="2.5"/>
<path d="M313.642 227.013L314.642 383.634" stroke="#F46666" stroke-width="2.5"/>
<path d="M301.324 219.973L301.324 383.633" stroke="#F46666" stroke-width="2.5"/>
<path d="M178.138 153.101L179.138 383.633" stroke="#F46666" stroke-width="2.5"/>
<path d="M164.061 146.063L164.061 383.634" stroke="#F46666" stroke-width="2.5"/>
<path d="M151.743 139.023L151.743 383.634" stroke="#F46666" stroke-width="2.5"/>
<path d="M137.663 128.465L137.663 383.634" stroke="#F46666" stroke-width="2.5"/>
<path d="M123.586 119.666L123.586 383.634" stroke="#F46666" stroke-width="2.5"/>
<path d="M109.508 107.347L109.508 383.634" stroke="#F46666" stroke-width="2.5"/>
<path d="M97.188 100.308L97.188 383.633" stroke="#F46666" stroke-width="2.5"/>
<path d="M83.1104 87.9897L83.1104 383.634" stroke="#F46666" stroke-width="2.5"/>
<path d="M505.458 290.365L506.458 383.634" stroke="#F46666" stroke-width="2.5"/>
<path d="M491.381 290.365L492.381 383.634" stroke="#F46666" stroke-width="2.5"/>
<path d="M477.301 285.085L478.301 383.634" stroke="#F46666" stroke-width="2.5"/>
<path d="M464.983 279.806L464.983 383.634" stroke="#F46666" stroke-width="2.5"/>
<path d="M450.906 276.287L450.906 383.634" stroke="#F46666" stroke-width="2.5"/>
<path d="M436.826 272.768L436.826 383.634" stroke="#F46666" stroke-width="2.5"/>
<path d="M422.75 265.728L422.75 383.633" stroke="#F46666" stroke-width="2.5"/>
<path d="M410.43 265.728L411.43 383.633" stroke="#F46666" stroke-width="2.5"/>
<path d="M709.594 322.041L710.594 383.633" stroke="#F46666" stroke-width="2.5"/>
<path d="M695.516 322.041L696.516 383.633" stroke="#F46666" stroke-width="2.5"/>
<path d="M681.436 320.282L681.436 383.634" stroke="#F46666" stroke-width="2.5"/>
<path d="M669.119 320.282L670.119 383.634" stroke="#F46666" stroke-width="2.5"/>
<path d="M655.041 316.762L656.041 383.634" stroke="#F46666" stroke-width="2.5"/>
<path d="M640.962 316.762L641.962 383.634" stroke="#F46666" stroke-width="2.5"/>
<path d="M626.883 315.002L627.883 383.634" stroke="#F46666" stroke-width="2.5"/>
<path d="M614.567 311.482L615.567 383.634" stroke="#F46666" stroke-width="2.5"/>
<path d="M820.606 327.32L819.606 383.633" stroke="#F46666" stroke-width="2.5"/>
<path d="M806.381 327.32L807.381 383.633" stroke="#F46666" stroke-width="2.5"/>
<path d="M790.543 325.561L791.543 383.634" stroke="#F46666" stroke-width="2.5"/>
<path d="M776.466 327.32L777.466 383.633" stroke="#F46666" stroke-width="2.5"/>
<path d="M764.147 325.561L765.147 383.634" stroke="#F46666" stroke-width="2.5"/>
<path d="M750.069 325.561L751.069 383.634" stroke="#F46666" stroke-width="2.5"/>
<path d="M735.99 325.561L736.99 383.634" stroke="#F46666" stroke-width="2.5"/>
<path d="M721.912 323.801L722.912 383.633" stroke="#F46666" stroke-width="2.5"/>
<path d="M600.487 311.482L601.487 383.634" stroke="#F46666" stroke-width="2.5"/>
<path d="M586.408 307.963L586.408 383.634" stroke="#F46666" stroke-width="2.5"/>
<path d="M572.332 304.443L572.332 383.633" stroke="#F46666" stroke-width="2.5"/>
<path d="M560.013 304.443L560.013 383.633" stroke="#F46666" stroke-width="2.5"/>
<path d="M545.934 300.923L545.934 383.633" stroke="#F46666" stroke-width="2.5"/>
<path d="M531.856 297.404L531.856 383.633" stroke="#F46666" stroke-width="2.5"/>
<path d="M517.778 293.885L518.778 383.634" stroke="#F46666" stroke-width="2.5"/>
<path d="M927.807 320.282L927.807 383.634" stroke="#F46666" stroke-width="2.5"/>
<path d="M915.49 322.041L916.49 383.633" stroke="#F46666" stroke-width="2.5"/>
<path d="M901.411 323.801L902.411 383.633" stroke="#F46666" stroke-width="2.5"/>
<path d="M887.333 323.801L888.333 383.633" stroke="#F46666" stroke-width="2.5"/>
<path d="M875.014 325.561L876.014 383.634" stroke="#F46666" stroke-width="2.5"/>
<path d="M860.935 325.561L861.935 383.634" stroke="#F46666" stroke-width="2.5"/>
<path d="M846.858 327.32L847.858 383.633" stroke="#F46666" stroke-width="2.5"/>
<path d="M832.779 327.32L833.779 383.633" stroke="#F46666" stroke-width="2.5"/>
<path d="M1036.91 302.684L1036.91 383.634" stroke="#F46666" stroke-width="2.5"/>
<path d="M1024.59 306.203L1024.59 383.634" stroke="#F46666" stroke-width="2.5"/>
<path d="M1010.52 309.722L1011.52 383.633" stroke="#F46666" stroke-width="2.5"/>
<path d="M996.438 309.722L997.438 383.633" stroke="#F46666" stroke-width="2.5"/>
<path d="M982.36 315.002L983.36 383.634" stroke="#F46666" stroke-width="2.5"/>
<path d="M970.041 315.002L971.041 383.634" stroke="#F46666" stroke-width="2.5"/>
<path d="M955.962 316.762L956.962 383.634" stroke="#F46666" stroke-width="2.5"/>
<path d="M941.884 320.282L942.884 383.634" stroke="#F46666" stroke-width="2.5"/>
<path d="M1079.15 293.885L1079.15 380.114" stroke="#F46666" stroke-width="2.5"/>
<path d="M1065.07 297.404L1065.07 380.114" stroke="#F46666" stroke-width="2.5"/>
<path d="M1050.99 300.923L1050.99 380.113" stroke="#F46666" stroke-width="2.5"/>
<path d="M1309.68 216.454L1309.68 383.634" stroke="#F46666" stroke-width="2.5"/>
<path d="M1323.76 211.174L1323.76 383.633" stroke="#F46666" stroke-width="2.5"/>
<path d="M1336.08 204.135L1337.08 383.634" stroke="#F46666" stroke-width="2.5"/>
<path d="M1350.15 195.337L1350.15 383.634" stroke="#F46666" stroke-width="2.5"/>
<path d="M1364.23 188.297L1364.23 383.633" stroke="#F46666" stroke-width="2.5"/>
<path d="M1378.31 181.258L1379.31 383.633" stroke="#F46666" stroke-width="2.5"/>
<path d="M1390.63 174.219L1390.63 383.634" stroke="#F46666" stroke-width="2.5"/>
<path d="M1404.71 165.42L1404.71 383.634" stroke="#F46666" stroke-width="2.5"/>
<path d="M1200.57 258.689L1200.57 383.634" stroke="#F46666" stroke-width="2.5"/>
<path d="M1214.65 255.17L1214.65 383.634" stroke="#F46666" stroke-width="2.5"/>
<path d="M1228.73 249.89L1228.73 383.634" stroke="#F46666" stroke-width="2.5"/>
<path d="M1241.05 244.61L1241.05 383.633" stroke="#F46666" stroke-width="2.5"/>
<path d="M1255.13 237.572L1255.13 383.634" stroke="#F46666" stroke-width="2.5"/>
<path d="M1269.21 234.052L1270.21 383.634" stroke="#F46666" stroke-width="2.5"/>
<path d="M1283.28 227.013L1284.28 383.634" stroke="#F46666" stroke-width="2.5"/>
<path d="M1295.6 219.973L1295.6 383.633" stroke="#F46666" stroke-width="2.5"/>
<path d="M1418.79 156.621L1418.79 383.634" stroke="#F46666" stroke-width="2.5"/>
<path d="M1432.87 149.582L1433.87 383.634" stroke="#F46666" stroke-width="2.5"/>
<path d="M1445.18 140.783L1446.18 383.634" stroke="#F46666" stroke-width="2.5"/>
<path d="M1459.26 130.224L1459.26 383.633" stroke="#F46666" stroke-width="2.5"/>
<path d="M1473.34 121.425L1473.34 383.633" stroke="#F46666" stroke-width="2.5"/>
<path d="M1487.42 114.386L1487.42 383.634" stroke="#F46666" stroke-width="2.5"/>
<path d="M1499.74 103.827L1499.74 383.633" stroke="#F46666" stroke-width="2.5"/>
<path d="M1513.82 91.5093L1513.82 383.634" stroke="#F46666" stroke-width="2.5"/>
<path d="M1091.47 290.365L1091.47 383.634" stroke="#F46666" stroke-width="2.5"/>
<path d="M1105.55 286.846L1105.55 383.634" stroke="#F46666" stroke-width="2.5"/>
<path d="M1119.62 283.325L1120.63 383.633" stroke="#F46666" stroke-width="2.5"/>
<path d="M1131.94 279.806L1131.94 383.634" stroke="#F46666" stroke-width="2.5"/>
<path d="M1146.02 276.287L1146.02 383.634" stroke="#F46666" stroke-width="2.5"/>
<path d="M1160.1 272.768L1160.1 383.634" stroke="#F46666" stroke-width="2.5"/>
<path d="M1174.18 267.488L1175.18 383.634" stroke="#F46666" stroke-width="2.5"/>
<path d="M1186.5 263.969L1186.5 383.634" stroke="#F46666" stroke-width="2.5"/>
<path d="M2.15998 7.03955C-61.3552 130.516 -281.908 377.997 -656 380.114" stroke="#F98282" stroke-width="5"/>
<path d="M3.91895 14.9583C95.7211 118.786 382.801 326.44 796.703 326.44C1210.6 326.44 1505.31 118.786 1600.92 14.9583" stroke="#F98282" stroke-width="5"/>
<rect x="-610.245" y="367.795" width="2815.66" height="29.9164" fill="#F98282"/>
<rect x="-610.246" y="373.074" width="2815.66" height="19.3576" fill="#FFB8B8"/>
<rect x="-89.3481" y="295.643" width="177.738" height="358.996" rx="1" fill="#F98282"/>
<rect x="-69.9893" y="22.877" width="139.023" height="520.897" rx="1" fill="#F98282"/>
<rect x="-77.0303" y="184.777" width="154.861" height="358.996" rx="1" fill="#F98282"/>
<rect width="70.2432" height="260.448" rx="1" transform="matrix(-1 0 0 1 35.5972 0)" fill="#F98282"/>
<rect x="-84.0698" y="300.923" width="167.18" height="242.85" rx="1" fill="#FFB8B8"/>
<rect x="-64.7109" y="28.1562" width="128.464" height="487.461" rx="1" fill="#FFB8B8"/>
<rect x="-71.7495" y="190.056" width="144.302" height="325.56" rx="1" fill="#FFB8B8"/>
<rect width="59.8327" height="251.649" rx="1" transform="matrix(-1 0 0 1 30.3174 5.2793)" fill="#FFB8B8"/>
<rect x="-78.79" y="306.203" width="156.621" height="237.571" rx="1" fill="#F98282"/>
<rect x="-59.4312" y="33.436" width="117.906" height="455.785" rx="1" fill="#F98282"/>
<rect x="-66.4702" y="195.336" width="133.744" height="293.884" rx="1" fill="#F98282"/>
<rect width="49.274" height="235.811" rx="1" transform="matrix(-1 0 0 1 25.0381 10.5591)" fill="#F98282"/>
<rect x="-77.0303" y="200.617" width="154.861" height="19.3576" fill="#FFB8B8"/>
<rect x="-71.7515" y="200.615" width="144.302" height="19.3576" fill="#F98282"/>
<rect x="-66.4712" y="200.615" width="133.744" height="19.3576" fill="#FFB8B8"/>
<rect x="-69.9893" y="38.7156" width="139.023" height="19.3576" fill="#FFB8B8"/>
<rect x="-64.709" y="38.7156" width="128.464" height="19.3576" fill="#F98282"/>
<rect x="-59.4302" y="38.7156" width="117.906" height="19.3576" fill="#FFB8B8"/>
<rect x="-89.3481" y="311.482" width="177.738" height="19.3576" fill="#FFB8B8"/>
<rect x="-84.0698" y="311.482" width="167.18" height="19.3576" fill="#F98282"/>
<rect x="-78.7896" y="311.482" width="156.621" height="19.3576" fill="#FFB8B8"/>
<rect x="-6.6377" y="82.71" width="14.0783" height="93.2687" rx="1" fill="#FFF8F3"/>
<rect x="-6.6377" y="237.571" width="14.0783" height="56.3132" rx="1" fill="#FFF8F3"/>
<rect x="1508.54" y="295.643" width="177.738" height="358.996" rx="1" fill="#F98282"/>
<rect x="1527.9" y="22.877" width="139.023" height="520.897" rx="1" fill="#F98282"/>
<rect x="1520.86" y="184.777" width="154.861" height="358.996" rx="1" fill="#F98282"/>
<rect width="70.2432" height="260.448" rx="1" transform="matrix(-1 0 0 1 1633.48 0)" fill="#F98282"/>
<rect x="1513.82" y="300.923" width="167.18" height="242.85" rx="1" fill="#FFB8B8"/>
<rect x="1533.18" y="28.1562" width="128.464" height="487.461" rx="1" fill="#FFB8B8"/>
<rect x="1526.14" y="190.056" width="144.302" height="325.56" rx="1" fill="#FFB8B8"/>
<rect width="59.8327" height="251.649" rx="1" transform="matrix(-1 0 0 1 1628.21 5.2793)" fill="#FFB8B8"/>
<rect x="1519.1" y="306.203" width="156.621" height="237.571" rx="1" fill="#F98282"/>
<rect x="1538.46" y="33.436" width="117.906" height="455.785" rx="1" fill="#F98282"/>
<rect x="1531.42" y="195.336" width="133.744" height="293.884" rx="1" fill="#F98282"/>
<rect width="49.274" height="235.811" rx="1" transform="matrix(-1 0 0 1 1622.92 10.5588)" fill="#F98282"/>
<rect x="1520.86" y="200.617" width="154.861" height="19.3576" fill="#FFB8B8"/>
<rect x="1526.14" y="200.615" width="144.302" height="19.3576" fill="#F98282"/>
<rect x="1531.42" y="200.615" width="133.744" height="19.3576" fill="#FFB8B8"/>
<rect x="1527.9" y="38.7156" width="139.023" height="19.3576" fill="#FFB8B8"/>
<rect x="1533.18" y="38.7156" width="128.464" height="19.3576" fill="#F98282"/>
<rect x="1538.46" y="38.7156" width="117.906" height="19.3576" fill="#FFB8B8"/>
<rect x="1508.54" y="311.482" width="177.738" height="19.3576" fill="#FFB8B8"/>
<rect x="1513.82" y="311.482" width="167.18" height="19.3576" fill="#F98282"/>
<rect x="1519.1" y="311.482" width="156.621" height="19.3576" fill="#FFB8B8"/>
<rect x="1591.25" y="82.71" width="14.0783" height="93.2687" rx="1" fill="#FFF8F3"/>
<rect x="1591.25" y="237.571" width="14.0783" height="56.3132" rx="1" fill="#FFF8F3"/>
<path d="M155.461 492.199C142.486 496.961 129.848 496.515 122.045 496.504L121.656 496.504C109.581 496.508 91.8908 496.515 93.2372 490.48C94.9657 482.732 82.0025 486.174 65.5824 492.199C52.6077 496.961 39.9703 496.515 32.167 496.504L31.7753 496.504C19.7192 496.508 2.87699 496.515 4.22332 490.48C5.95175 482.733 -7.87566 486.174 -24.2957 492.199C-37.4317 497.02 -50.2221 496.503 -58 496.503V512H2736V496.503L2735.01 496.504C2722.73 496.508 2705.57 496.515 2706.94 490.48C2708.7 482.733 2694.61 486.174 2677.88 492.199C2664.77 496.92 2651.99 496.522 2644.03 496.504C2631.85 496.503 2615.73 496.335 2617.06 490.48C2618.82 482.733 2604.73 486.174 2588 492.199C2574.89 496.92 2562.12 496.522 2554.15 496.504C2541.97 496.503 2525.85 496.335 2527.18 490.48C2528.94 482.733 2514.85 486.174 2498.12 492.199C2484.9 496.961 2472.02 496.515 2464.07 496.504L2463.67 496.504C2451.61 496.508 2434.77 496.515 2436.12 490.48C2437.85 482.733 2424.02 486.174 2407.6 492.199C2394.62 496.961 2381.99 496.515 2374.18 496.504L2373.79 496.504C2361.74 496.508 2344.89 496.515 2346.24 490.48C2347.97 482.733 2334.14 486.174 2317.72 492.199C2304.75 496.961 2292.11 496.515 2284.31 496.504L2283.91 496.504C2271.86 496.508 2255.02 496.515 2256.36 490.48C2258.09 482.733 2244.26 486.174 2227.84 492.199C2214.87 496.961 2202.23 496.515 2194.43 496.504L2194.04 496.504C2181.98 496.508 2165.14 496.515 2166.48 490.48C2168.21 482.733 2154.38 486.174 2137.96 492.199C2125 496.956 2112.38 496.516 2104.57 496.504L2104.14 496.504C2091.85 496.508 2074.69 496.515 2076.06 490.48C2077.82 482.733 2063.73 486.174 2047 492.199C2033.89 496.92 2021.12 496.522 2013.15 496.504C2000.97 496.503 1984.85 496.335 1986.18 490.48C1987.95 482.733 1973.85 486.174 1957.12 492.199C1944.01 496.92 1931.24 496.522 1923.27 496.504C1911.09 496.503 1894.98 496.335 1896.31 490.48C1898.07 482.733 1883.98 486.174 1867.24 492.199C1854.13 496.92 1841.36 496.522 1833.4 496.504C1821.21 496.503 1805.1 496.335 1806.43 490.48C1808.19 482.733 1794.1 486.174 1777.37 492.199C1764.14 496.961 1751.26 496.515 1743.31 496.504L1742.92 496.504C1730.86 496.508 1714.02 496.515 1715.36 490.48C1717.09 482.733 1703.27 486.174 1686.85 492.199C1673.87 496.961 1661.23 496.515 1653.43 496.504L1653.04 496.504C1640.98 496.508 1624.14 496.515 1625.49 490.48C1627.21 482.733 1613.39 486.174 1596.97 492.199C1583.99 496.961 1571.36 496.515 1563.55 496.504L1563.16 496.504C1551.1 496.508 1534.26 496.515 1535.61 490.48C1537.34 482.733 1523.51 486.174 1507.09 492.199C1494.11 496.961 1481.48 496.515 1473.67 496.504L1473.28 496.504C1461.23 496.508 1444.38 496.515 1445.73 490.48C1447.46 482.733 1433.63 486.174 1417.21 492.199C1404.25 496.956 1391.62 496.516 1383.82 496.504L1383.39 496.504C1371.1 496.508 1353.94 496.515 1355.31 490.48C1357.07 482.733 1342.98 486.174 1326.25 492.199C1313.14 496.92 1300.37 496.522 1292.4 496.504C1280.22 496.503 1264.1 496.335 1265.43 490.48C1267.19 482.733 1253.1 486.174 1236.37 492.199C1223.26 496.92 1210.49 496.522 1202.52 496.504C1190.34 496.503 1174.22 496.335 1175.55 490.48C1177.31 482.733 1163.22 486.174 1146.49 492.199C1133.38 496.92 1120.61 496.522 1112.64 496.504C1100.46 496.503 1084.34 496.335 1085.67 490.48C1087.44 482.733 1073.35 486.174 1056.61 492.199C1043.39 496.961 1030.51 496.515 1022.56 496.504L1022.16 496.504C1010.11 496.508 993.265 496.515 994.611 490.48C996.34 482.733 982.512 486.174 966.092 492.199C953.117 496.961 940.48 496.515 932.677 496.504L932.285 496.504C920.229 496.508 903.387 496.515 904.733 490.48C906.461 482.733 892.634 486.174 876.214 492.199C863.239 496.961 850.602 496.515 842.799 496.504L842.407 496.504C830.351 496.508 813.509 496.515 814.855 490.48C816.583 482.733 802.756 486.174 786.336 492.199C773.361 496.961 760.724 496.515 752.92 496.504L752.529 496.504C740.473 496.508 723.63 496.515 724.977 490.48C726.705 482.733 712.878 486.174 696.458 492.199C683.495 496.956 670.868 496.516 663.063 496.504L662.632 496.504C650.347 496.508 633.183 496.515 634.555 490.48C636.317 482.733 622.226 486.174 605.493 492.199C592.384 496.92 579.612 496.522 571.645 496.504C559.463 496.503 543.346 496.335 544.677 490.48C546.439 482.733 532.348 486.174 515.615 492.199C502.505 496.92 489.734 496.522 481.767 496.504C469.585 496.503 453.468 496.335 454.799 490.48C456.561 482.733 442.47 486.174 425.737 492.199C412.627 496.92 399.856 496.522 391.888 496.504C379.707 496.503 363.59 496.335 364.921 490.48C366.682 482.733 352.592 486.174 335.859 492.199C322.636 496.961 309.758 496.515 301.806 496.504L301.41 496.504C289.354 496.508 272.511 496.515 273.858 490.48C275.586 482.733 261.759 486.174 245.339 492.199C232.364 496.961 219.727 496.515 211.923 496.504L211.532 496.504C199.475 496.508 182.633 496.515 183.98 490.48C185.708 482.733 171.881 486.174 155.461 492.199Z" fill="#F98282"/>
</g>
</svg>
