<svg width="1600" height="1275" viewBox="0 0 1600 1275" fill="none" xmlns="http://www.w3.org/2000/svg">
<mask id="mask0" mask-type="alpha" maskUnits="userSpaceOnUse" x="0" y="0" width="1600" height="1275">
<rect width="1600" height="1275" fill="#F98282"/>
</mask>
<g mask="url(#mask0)">
<path d="M856.026 754.191L857.026 1047.22" stroke="#FFF8F3" stroke-width="5"/>
<path d="M894.456 734.977L895.456 1047.22" stroke="#FFF8F3" stroke-width="5"/>
<path d="M928.083 710.958L929.083 1047.22" stroke="#FFF8F3" stroke-width="5"/>
<path d="M966.514 686.939L967.514 1047.22" stroke="#FFF8F3" stroke-width="5"/>
<path d="M1004.94 662.92L1005.94 1047.22" stroke="#FFF8F3" stroke-width="5"/>
<path d="M1038.57 634.097L1038.57 1047.22" stroke="#FFF8F3" stroke-width="5"/>
<path d="M1077 610.079L1078 1047.22" stroke="#FFF8F3" stroke-width="5"/>
<path d="M1115.43 581.256L1116.43 1047.22" stroke="#FFF8F3" stroke-width="5"/>
<path d="M562.997 893.501L563.997 1047.22" stroke="#FFF8F3" stroke-width="5"/>
<path d="M601.426 883.894L601.426 1047.22" stroke="#FFF8F3" stroke-width="5"/>
<path d="M635.053 862.277V1047.22" stroke="#FFF8F3" stroke-width="5"/>
<path d="M673.483 850.267L674.483 1047.22" stroke="#FFF8F3" stroke-width="5"/>
<path d="M711.913 831.052L712.913 1047.22" stroke="#FFF8F3" stroke-width="5"/>
<path d="M745.539 811.836L746.539 1047.22" stroke="#FFF8F3" stroke-width="5"/>
<path d="M783.97 792.622L784.97 1047.22" stroke="#FFF8F3" stroke-width="5"/>
<path d="M817.596 778.211L818.596 1047.22" stroke="#FFF8F3" stroke-width="5"/>
<path d="M1149.06 552.434L1150.06 1047.22" stroke="#FFF8F3" stroke-width="5"/>
<path d="M1187.49 518.807L1187.49 1047.22" stroke="#FFF8F3" stroke-width="5"/>
<path d="M1221.11 485.181L1222.11 1047.22" stroke="#FFF8F3" stroke-width="5"/>
<path d="M1259.54 451.554L1259.54 1047.22" stroke="#FFF8F3" stroke-width="5"/>
<path d="M1297.97 417.928L1297.97 1047.22" stroke="#FFF8F3" stroke-width="5"/>
<path d="M1331.6 379.498L1331.6 1047.22" stroke="#FFF8F3" stroke-width="5"/>
<path d="M1370.03 341.068L1370.03 1047.22" stroke="#FFF8F3" stroke-width="5"/>
<path d="M269.966 984.772L270.966 1047.22" stroke="#FFF8F3" stroke-width="5"/>
<path d="M308.396 975.166L309.396 1047.22" stroke="#FFF8F3" stroke-width="5"/>
<path d="M342.022 965.558L343.022 1047.22" stroke="#FFF8F3" stroke-width="5"/>
<path d="M380.453 955.95L380.453 1047.22" stroke="#FFF8F3" stroke-width="5"/>
<path d="M418.883 946.343L419.883 1047.22" stroke="#FFF8F3" stroke-width="5"/>
<path d="M452.51 931.931L452.51 1047.22" stroke="#FFF8F3" stroke-width="5"/>
<path d="M490.939 922.324L490.939 1047.22" stroke="#FFF8F3" stroke-width="5"/>
<path d="M524.566 907.913L525.566 1047.22" stroke="#FFF8F3" stroke-width="5"/>
<path d="M1600.61 19.2151C1427.23 356.274 825.175 1031.84 -196 1037.61" stroke="#FFF8F3" stroke-width="20"/>
<path d="M1605.41 40.8321C1856.01 324.254 2639.66 891.099 3769.51 891.099C4899.36 891.099 5703.83 324.254 5964.83 40.8321" stroke="#FFF8F3" stroke-width="20"/>
<rect x="-71.1016" y="1003.99" width="7686.03" height="81.6641" fill="#FFF8F3"/>
<rect x="-71.1016" y="1018.4" width="7686.03" height="52.8415" fill="#FEE9DA"/>
<rect x="1350.81" y="807.031" width="485.181" height="979.969" rx="1" fill="#FFF8F3"/>
<rect x="1403.66" y="62.4493" width="379.498" height="1421.92" rx="1" fill="#FFF8F3"/>
<rect x="1384.44" y="504.394" width="422.732" height="979.969" rx="1" fill="#FFF8F3"/>
<rect width="191.746" height="710.958" rx="1" transform="matrix(-1 0 0 1 1691.88 0.000244141)" fill="#FFF8F3"/>
<rect x="1365.23" y="821.444" width="456.358" height="662.92" rx="1" fill="#FEE9DA"/>
<rect x="1418.07" y="76.8603" width="350.675" height="1330.64" rx="1" fill="#FEE9DA"/>
<rect x="1398.85" y="518.807" width="393.909" height="888.697" rx="1" fill="#FEE9DA"/>
<rect width="163.328" height="686.939" rx="1" transform="matrix(-1 0 0 1 1677.47 14.4112)" fill="#FEE9DA"/>
<rect x="1379.64" y="835.856" width="427.535" height="648.509" rx="1" fill="#FFF8F3"/>
<rect x="1432.48" y="91.2719" width="321.852" height="1244.18" rx="1" fill="#FFF8F3"/>
<rect x="1413.26" y="533.219" width="365.086" height="802.229" rx="1" fill="#FFF8F3"/>
<rect width="134.506" height="643.705" rx="1" transform="matrix(-1 0 0 1 1663.06 28.8228)" fill="#FFF8F3"/>
<rect x="1384.44" y="547.63" width="422.732" height="52.8415" fill="#FEE9DA"/>
<rect x="1398.85" y="547.63" width="393.909" height="52.8415" fill="#FFF8F3"/>
<rect x="1413.26" y="547.63" width="365.086" height="52.8415" fill="#FEE9DA"/>
<rect x="1403.66" y="105.684" width="379.498" height="52.8415" fill="#FEE9DA"/>
<rect x="1418.07" y="105.683" width="350.675" height="52.8415" fill="#FFF8F3"/>
<rect x="1432.48" y="105.683" width="321.852" height="52.8415" fill="#FEE9DA"/>
<rect x="1350.81" y="850.268" width="485.181" height="52.8415" fill="#FEE9DA"/>
<rect x="1365.22" y="850.268" width="456.358" height="52.8415" fill="#FFF8F3"/>
<rect x="1379.64" y="850.268" width="427.535" height="52.8415" fill="#FEE9DA"/>
<rect x="1576.59" y="225.777" width="38.4301" height="254.6" rx="1" fill="#F98282"/>
<rect x="1576.59" y="648.509" width="38.4301" height="153.721" rx="1" fill="#F98282"/>
<path d="M294.521 1246.06C276.619 1253.02 259.182 1252.37 248.416 1252.35L247.878 1252.35C231.219 1252.36 206.811 1252.37 208.668 1243.55C211.053 1232.22 193.167 1237.25 170.512 1246.06C152.61 1253.02 135.174 1252.37 124.407 1252.35L123.867 1252.35C107.232 1252.36 83.9945 1252.37 85.8521 1243.55C88.2369 1232.22 69.1587 1237.25 46.5032 1246.06C28.3789 1253.11 10.7315 1252.35 0 1252.35V1275H3855V1252.35L3853.64 1252.35C3836.69 1252.36 3813.01 1252.37 3814.9 1243.55C3817.33 1232.22 3797.89 1237.25 3774.8 1246.06C3756.72 1252.96 3739.09 1252.38 3728.1 1252.35C3711.29 1252.35 3689.06 1252.1 3690.89 1243.55C3693.32 1232.22 3673.88 1237.25 3650.79 1246.06C3632.71 1252.96 3615.08 1252.38 3604.09 1252.35C3587.28 1252.35 3565.05 1252.1 3566.88 1243.55C3569.31 1232.22 3549.87 1237.25 3526.79 1246.06C3508.54 1253.02 3490.77 1252.37 3479.8 1252.35L3479.25 1252.35C3462.62 1252.36 3439.38 1252.37 3441.24 1243.55C3443.62 1232.22 3424.55 1237.25 3401.89 1246.06C3383.99 1253.02 3366.55 1252.37 3355.79 1252.35L3355.25 1252.35C3338.61 1252.36 3315.37 1252.37 3317.23 1243.55C3319.62 1232.22 3300.54 1237.25 3277.88 1246.06C3259.98 1253.02 3242.54 1252.37 3231.78 1252.35L3231.24 1252.35C3214.6 1252.36 3191.37 1252.37 3193.22 1243.55C3195.61 1232.22 3176.53 1237.25 3153.87 1246.06C3135.97 1253.02 3118.54 1252.37 3107.77 1252.35L3107.23 1252.35C3090.59 1252.36 3067.36 1252.37 3069.21 1243.55C3071.6 1232.22 3052.52 1237.25 3029.87 1246.06C3011.98 1253.01 2994.56 1252.37 2983.79 1252.35L2983.19 1252.35C2966.24 1252.36 2942.56 1252.37 2944.46 1243.55C2946.89 1232.22 2927.44 1237.25 2904.36 1246.06C2886.27 1252.96 2868.65 1252.38 2857.66 1252.35C2840.85 1252.35 2818.61 1252.1 2820.45 1243.55C2822.88 1232.22 2803.44 1237.25 2780.35 1246.06C2762.26 1252.96 2744.64 1252.38 2733.65 1252.35C2716.84 1252.35 2694.6 1252.1 2696.44 1243.55C2698.87 1232.22 2679.43 1237.25 2656.34 1246.06C2638.25 1252.96 2620.63 1252.38 2609.64 1252.35C2592.83 1252.35 2570.59 1252.1 2572.43 1243.55C2574.86 1232.22 2555.42 1237.25 2532.33 1246.06C2514.09 1253.02 2496.32 1252.37 2485.35 1252.35L2484.8 1252.35C2468.17 1252.36 2444.93 1252.37 2446.79 1243.55C2449.17 1232.22 2430.09 1237.25 2407.44 1246.06C2389.54 1253.02 2372.1 1252.37 2361.33 1252.35L2360.79 1252.35C2344.16 1252.36 2320.92 1252.37 2322.78 1243.55C2325.16 1232.22 2306.08 1237.25 2283.43 1246.06C2265.53 1253.02 2248.09 1252.37 2237.32 1252.35L2236.78 1252.35C2220.15 1252.36 2196.91 1252.37 2198.77 1243.55C2201.15 1232.22 2182.08 1237.25 2159.42 1246.06C2141.52 1253.02 2124.08 1252.37 2113.32 1252.35L2112.77 1252.35C2096.14 1252.36 2072.9 1252.37 2074.76 1243.55C2077.15 1232.22 2058.07 1237.25 2035.41 1246.06C2017.53 1253.01 2000.1 1252.37 1989.34 1252.35L1988.74 1252.35C1971.79 1252.36 1948.11 1252.37 1950 1243.55C1952.43 1232.22 1932.99 1237.25 1909.9 1246.06C1891.82 1252.96 1874.19 1252.38 1863.2 1252.35C1846.39 1252.35 1824.16 1252.1 1825.99 1243.55C1828.42 1232.22 1808.98 1237.25 1785.9 1246.06C1767.81 1252.96 1750.19 1252.38 1739.19 1252.35C1722.39 1252.35 1700.15 1252.1 1701.98 1243.55C1704.41 1232.22 1684.97 1237.25 1661.89 1246.06C1643.8 1252.96 1626.18 1252.38 1615.18 1252.35C1598.38 1252.35 1576.14 1252.1 1577.98 1243.55C1580.41 1232.22 1560.96 1237.25 1537.88 1246.06C1519.63 1253.02 1501.86 1252.37 1490.89 1252.35L1490.35 1252.35C1473.71 1252.36 1450.47 1252.37 1452.33 1243.55C1454.72 1232.22 1435.64 1237.25 1412.98 1246.06C1395.08 1253.02 1377.65 1252.37 1366.88 1252.35L1366.34 1252.35C1349.7 1252.36 1326.47 1252.37 1328.32 1243.55C1330.71 1232.22 1311.63 1237.25 1288.97 1246.06C1271.07 1253.02 1253.64 1252.37 1242.87 1252.35L1242.33 1252.35C1225.7 1252.36 1202.46 1252.37 1204.31 1243.55C1206.7 1232.22 1187.62 1237.25 1164.97 1246.06C1147.06 1253.02 1129.63 1252.37 1118.86 1252.35L1118.32 1252.35C1101.69 1252.36 1078.45 1252.37 1080.31 1243.55C1082.69 1232.22 1063.61 1237.25 1040.96 1246.06C1023.07 1253.01 1005.65 1252.37 994.882 1252.35L994.287 1252.35C977.336 1252.36 953.655 1252.37 955.548 1243.55C957.978 1232.22 938.537 1237.25 915.45 1246.06C897.362 1252.96 879.74 1252.38 868.747 1252.35C851.94 1252.35 829.703 1252.1 831.539 1243.55C833.97 1232.22 814.528 1237.25 791.441 1246.06C773.353 1252.96 755.731 1252.38 744.739 1252.35C727.932 1252.35 705.694 1252.1 707.531 1243.55C709.961 1232.22 690.519 1237.25 667.432 1246.06C649.344 1252.96 631.723 1252.38 620.73 1252.35C603.922 1252.35 581.685 1252.1 583.522 1243.55C585.952 1232.22 566.511 1237.25 543.424 1246.06C525.18 1253.02 507.411 1252.37 496.439 1252.35L495.893 1252.35C479.258 1252.36 456.021 1252.37 457.878 1243.55C460.263 1232.22 441.185 1237.25 418.529 1246.06C400.627 1253.02 383.191 1252.37 372.425 1252.35L371.884 1252.35C355.25 1252.36 332.012 1252.37 333.869 1243.55C336.254 1232.22 317.176 1237.25 294.521 1246.06Z" fill="#FFF8F3"/>
</g>
</svg>
