<svg width="1600" height="283" viewBox="0 0 1600 283" fill="none" xmlns="http://www.w3.org/2000/svg">
<mask id="mask0" mask-type="alpha" maskUnits="userSpaceOnUse" x="0" y="0" width="1602" height="283">
<rect width="1602" height="283" fill="#C4C4C4"/>
</mask>
<g mask="url(#mask0)">
<path d="M187.178 157.844L188.178 219.172" stroke="#F98282" stroke-width="2.5"/>
<path d="M195.221 153.823L196.221 219.172" stroke="#F98282" stroke-width="2.5"/>
<path d="M202.259 148.796L203.259 219.172" stroke="#F98282" stroke-width="2.5"/>
<path d="M210.301 143.769L211.301 219.172" stroke="#F98282" stroke-width="2.5"/>
<path d="M218.344 138.742L219.344 219.172" stroke="#F98282" stroke-width="2.5"/>
<path d="M225.382 132.709L226.382 219.172" stroke="#F98282" stroke-width="2.5"/>
<path d="M233.425 127.683L233.425 219.172" stroke="#F98282" stroke-width="2.5"/>
<path d="M241.468 121.65L242.468 219.172" stroke="#F98282" stroke-width="2.5"/>
<path d="M125.85 187L126.85 219.172" stroke="#F98282" stroke-width="2.5"/>
<path d="M133.893 184.989L133.893 219.172" stroke="#F98282" stroke-width="2.5"/>
<path d="M140.931 180.465V219.172" stroke="#F98282" stroke-width="2.5"/>
<path d="M148.974 177.952L148.974 219.172" stroke="#F98282" stroke-width="2.5"/>
<path d="M157.017 173.93L157.017 219.172" stroke="#F98282" stroke-width="2.5"/>
<path d="M164.054 169.908L164.054 219.172" stroke="#F98282" stroke-width="2.5"/>
<path d="M172.097 165.887L173.097 219.172" stroke="#F98282" stroke-width="2.5"/>
<path d="M179.135 162.871L180.135 219.172" stroke="#F98282" stroke-width="2.5"/>
<path d="M248.506 115.618L249.506 219.172" stroke="#F98282" stroke-width="2.5"/>
<path d="M256.549 108.581L256.549 219.172" stroke="#F98282" stroke-width="2.5"/>
<path d="M263.586 101.543L263.586 219.172" stroke="#F98282" stroke-width="2.5"/>
<path d="M271.629 94.5054L272.629 219.172" stroke="#F98282" stroke-width="2.5"/>
<path d="M279.672 87.4678L280.672 219.172" stroke="#F98282" stroke-width="2.5"/>
<path d="M286.71 79.4248L287.71 219.172" stroke="#F98282" stroke-width="2.5"/>
<path d="M294.753 71.3818L295.753 219.172" stroke="#F98282" stroke-width="2.5"/>
<path d="M64.522 206.102L64.522 219.172" stroke="#F98282" stroke-width="2.5"/>
<path d="M72.5649 204.091L72.5649 219.172" stroke="#F98282" stroke-width="2.5"/>
<path d="M79.603 202.081L79.603 219.172" stroke="#F98282" stroke-width="2.5"/>
<path d="M87.6455 200.07L87.6455 219.172" stroke="#F98282" stroke-width="2.5"/>
<path d="M95.6885 198.059L95.6885 219.172" stroke="#F98282" stroke-width="2.5"/>
<path d="M102.727 195.043L103.727 219.172" stroke="#F98282" stroke-width="2.5"/>
<path d="M110.769 193.032L111.769 219.172" stroke="#F98282" stroke-width="2.5"/>
<path d="M117.807 190.016L117.807 219.172" stroke="#F98282" stroke-width="2.5"/>
<path d="M505.881 121.65L505.881 219.172" stroke="#F98282" stroke-width="2.5"/>
<path d="M497.838 118.635L498.838 219.172" stroke="#F98282" stroke-width="2.5"/>
<path d="M490.801 114.613L491.801 219.172" stroke="#F98282" stroke-width="2.5"/>
<path d="M482.758 110.591L482.758 219.172" stroke="#F98282" stroke-width="2.5"/>
<path d="M474.714 106.57L475.714 219.172" stroke="#F98282" stroke-width="2.5"/>
<path d="M466.672 101.543L466.672 219.172" stroke="#F98282" stroke-width="2.5"/>
<path d="M459.634 97.5215L459.634 219.172" stroke="#F98282" stroke-width="2.5"/>
<path d="M451.591 92.4946L452.591 219.172" stroke="#F98282" stroke-width="2.5"/>
<path d="M568.215 148.796L569.215 219.172" stroke="#F98282" stroke-width="2.5"/>
<path d="M560.171 143.769L561.171 219.172" stroke="#F98282" stroke-width="2.5"/>
<path d="M552.129 142.763L553.129 219.172" stroke="#F98282" stroke-width="2.5"/>
<path d="M545.091 138.742L546.091 219.172" stroke="#F98282" stroke-width="2.5"/>
<path d="M537.048 136.731L537.048 219.172" stroke="#F98282" stroke-width="2.5"/>
<path d="M529.005 132.709L529.005 219.172" stroke="#F98282" stroke-width="2.5"/>
<path d="M520.962 129.693L521.962 219.172" stroke="#F98282" stroke-width="2.5"/>
<path d="M513.924 125.672L513.924 219.172" stroke="#F98282" stroke-width="2.5"/>
<path d="M443.548 87.4678L444.548 219.172" stroke="#F98282" stroke-width="2.5"/>
<path d="M435.505 83.4463L436.505 219.172" stroke="#F98282" stroke-width="2.5"/>
<path d="M428.467 79.4248L429.467 219.172" stroke="#F98282" stroke-width="2.5"/>
<path d="M420.424 73.3926L421.424 219.172" stroke="#F98282" stroke-width="2.5"/>
<path d="M412.382 68.3657L413.382 219.172" stroke="#F98282" stroke-width="2.5"/>
<path d="M404.338 61.3281L405.338 219.172" stroke="#F98282" stroke-width="2.5"/>
<path d="M397.301 57.3066L398.301 219.172" stroke="#F98282" stroke-width="2.5"/>
<path d="M389.258 50.269L390.258 219.172" stroke="#F98282" stroke-width="2.5"/>
<path d="M630.548 165.887L630.548 219.172" stroke="#F98282" stroke-width="2.5"/>
<path d="M622.505 165.887L623.505 219.172" stroke="#F98282" stroke-width="2.5"/>
<path d="M614.462 162.871L615.462 219.172" stroke="#F98282" stroke-width="2.5"/>
<path d="M607.424 159.854L607.424 219.172" stroke="#F98282" stroke-width="2.5"/>
<path d="M599.381 157.844L600.381 219.172" stroke="#F98282" stroke-width="2.5"/>
<path d="M591.338 155.833L592.338 219.172" stroke="#F98282" stroke-width="2.5"/>
<path d="M583.295 151.812L584.295 219.172" stroke="#F98282" stroke-width="2.5"/>
<path d="M576.258 151.812L577.258 219.172" stroke="#F98282" stroke-width="2.5"/>
<path d="M747.172 183.984L747.172 219.172" stroke="#F98282" stroke-width="2.5"/>
<path d="M739.128 183.984L740.128 219.172" stroke="#F98282" stroke-width="2.5"/>
<path d="M731.085 182.979L732.085 219.172" stroke="#F98282" stroke-width="2.5"/>
<path d="M724.048 182.979L724.048 219.172" stroke="#F98282" stroke-width="2.5"/>
<path d="M716.005 180.968L717.005 219.172" stroke="#F98282" stroke-width="2.5"/>
<path d="M707.962 180.968L708.962 219.172" stroke="#F98282" stroke-width="2.5"/>
<path d="M699.918 179.962L700.918 219.172" stroke="#F98282" stroke-width="2.5"/>
<path d="M692.881 177.952L693.881 219.172" stroke="#F98282" stroke-width="2.5"/>
<path d="M811.022 187L810.022 219.172" stroke="#F98282" stroke-width="2.5"/>
<path d="M802.467 187L803.467 219.172" stroke="#F98282" stroke-width="2.5"/>
<path d="M793.419 185.995L794.419 219.172" stroke="#F98282" stroke-width="2.5"/>
<path d="M785.375 187L785.375 219.172" stroke="#F98282" stroke-width="2.5"/>
<path d="M778.338 185.995L779.338 219.172" stroke="#F98282" stroke-width="2.5"/>
<path d="M770.295 185.995L771.295 219.172" stroke="#F98282" stroke-width="2.5"/>
<path d="M762.252 185.995L763.252 219.172" stroke="#F98282" stroke-width="2.5"/>
<path d="M754.209 184.989L755.209 219.172" stroke="#F98282" stroke-width="2.5"/>
<path d="M684.838 177.952L685.838 219.172" stroke="#F98282" stroke-width="2.5"/>
<path d="M676.795 175.941L677.795 219.172" stroke="#F98282" stroke-width="2.5"/>
<path d="M668.752 173.93L669.752 219.172" stroke="#F98282" stroke-width="2.5"/>
<path d="M661.715 173.93L662.715 219.172" stroke="#F98282" stroke-width="2.5"/>
<path d="M653.672 171.919L653.672 219.172" stroke="#F98282" stroke-width="2.5"/>
<path d="M645.628 169.909L646.628 219.172" stroke="#F98282" stroke-width="2.5"/>
<path d="M637.586 167.898L638.586 219.172" stroke="#F98282" stroke-width="2.5"/>
<path d="M871.838 182.979L872.838 219.172" stroke="#F98282" stroke-width="2.5"/>
<path d="M864.8 183.984L864.8 219.172" stroke="#F98282" stroke-width="2.5"/>
<path d="M856.758 184.989L857.758 219.172" stroke="#F98282" stroke-width="2.5"/>
<path d="M848.714 184.989L849.714 219.172" stroke="#F98282" stroke-width="2.5"/>
<path d="M841.677 185.995L842.677 219.172" stroke="#F98282" stroke-width="2.5"/>
<path d="M833.634 185.995L834.634 219.172" stroke="#F98282" stroke-width="2.5"/>
<path d="M825.591 187L826.591 219.172" stroke="#F98282" stroke-width="2.5"/>
<path d="M817.548 187L817.548 219.172" stroke="#F98282" stroke-width="2.5"/>
<path d="M934.171 172.925L934.171 219.172" stroke="#F98282" stroke-width="2.5"/>
<path d="M927.134 174.936L928.134 219.172" stroke="#F98282" stroke-width="2.5"/>
<path d="M919.091 176.946L920.091 219.172" stroke="#F98282" stroke-width="2.5"/>
<path d="M911.048 176.946L911.048 219.172" stroke="#F98282" stroke-width="2.5"/>
<path d="M903.005 179.962L904.005 219.172" stroke="#F98282" stroke-width="2.5"/>
<path d="M895.967 179.962L896.967 219.172" stroke="#F98282" stroke-width="2.5"/>
<path d="M887.924 180.968L887.924 219.172" stroke="#F98282" stroke-width="2.5"/>
<path d="M879.881 182.979L880.881 219.172" stroke="#F98282" stroke-width="2.5"/>
<path d="M958.301 167.898L958.301 217.161" stroke="#F98282" stroke-width="2.5"/>
<path d="M950.258 169.909L951.258 217.161" stroke="#F98282" stroke-width="2.5"/>
<path d="M942.214 171.919L943.214 217.161" stroke="#F98282" stroke-width="2.5"/>
<path d="M1090 123.662L1091 219.172" stroke="#F98282" stroke-width="2.5"/>
<path d="M1098.05 120.645L1098.05 219.172" stroke="#F98282" stroke-width="2.5"/>
<path d="M1105.08 116.624L1105.08 219.172" stroke="#F98282" stroke-width="2.5"/>
<path d="M1113.13 111.597L1113.13 219.172" stroke="#F98282" stroke-width="2.5"/>
<path d="M1121.17 107.575L1121.17 219.172" stroke="#F98282" stroke-width="2.5"/>
<path d="M1129.21 103.554L1129.21 219.172" stroke="#F98282" stroke-width="2.5"/>
<path d="M1136.25 99.5322L1136.25 219.172" stroke="#F98282" stroke-width="2.5"/>
<path d="M1144.29 94.5054L1144.29 219.172" stroke="#F98282" stroke-width="2.5"/>
<path d="M1027.67 147.79L1028.67 219.172" stroke="#F98282" stroke-width="2.5"/>
<path d="M1035.71 145.78L1036.71 219.172" stroke="#F98282" stroke-width="2.5"/>
<path d="M1043.76 142.763L1044.76 219.172" stroke="#F98282" stroke-width="2.5"/>
<path d="M1050.79 139.747L1051.79 219.172" stroke="#F98282" stroke-width="2.5"/>
<path d="M1058.84 135.726L1059.84 219.172" stroke="#F98282" stroke-width="2.5"/>
<path d="M1066.88 133.715L1067.88 219.172" stroke="#F98282" stroke-width="2.5"/>
<path d="M1074.92 129.693L1074.92 219.172" stroke="#F98282" stroke-width="2.5"/>
<path d="M1081.96 125.672L1081.96 219.172" stroke="#F98282" stroke-width="2.5"/>
<path d="M1152.34 89.4785L1153.34 219.172" stroke="#F98282" stroke-width="2.5"/>
<path d="M1160.38 85.457L1161.38 219.172" stroke="#F98282" stroke-width="2.5"/>
<path d="M1167.42 80.4302L1168.42 219.172" stroke="#F98282" stroke-width="2.5"/>
<path d="M1175.46 74.3979L1176.46 219.172" stroke="#F98282" stroke-width="2.5"/>
<path d="M1183.5 69.3711L1184.5 219.172" stroke="#F98282" stroke-width="2.5"/>
<path d="M1191.55 65.3496L1192.55 219.172" stroke="#F98282" stroke-width="2.5"/>
<path d="M1198.59 59.3174L1199.59 219.172" stroke="#F98282" stroke-width="2.5"/>
<path d="M1206.63 52.2793L1207.63 219.172" stroke="#F98282" stroke-width="2.5"/>
<path d="M965.338 165.887L966.338 219.172" stroke="#F98282" stroke-width="2.5"/>
<path d="M973.382 163.876L974.382 219.172" stroke="#F98282" stroke-width="2.5"/>
<path d="M981.425 161.866L981.425 219.172" stroke="#F98282" stroke-width="2.5"/>
<path d="M988.461 159.854L989.461 219.172" stroke="#F98282" stroke-width="2.5"/>
<path d="M996.504 157.844L996.504 219.172" stroke="#F98282" stroke-width="2.5"/>
<path d="M1004.55 155.833L1004.55 219.172" stroke="#F98282" stroke-width="2.5"/>
<path d="M1012.59 152.817L1013.59 219.172" stroke="#F98282" stroke-width="2.5"/>
<path d="M1019.63 150.807L1019.63 219.172" stroke="#F98282" stroke-width="2.5"/>
<path d="M1411.72 157.844L1410.72 219.172" stroke="#F98282" stroke-width="2.5"/>
<path d="M1403.68 153.822L1402.68 219.172" stroke="#F98282" stroke-width="2.5"/>
<path d="M1396.64 148.795L1395.64 219.172" stroke="#F98282" stroke-width="2.5"/>
<path d="M1388.6 143.769L1387.6 219.172" stroke="#F98282" stroke-width="2.5"/>
<path d="M1380.55 138.742L1379.55 219.172" stroke="#F98282" stroke-width="2.5"/>
<path d="M1372.52 132.709L1372.52 219.172" stroke="#F98282" stroke-width="2.5"/>
<path d="M1365.47 127.683L1364.47 219.172" stroke="#F98282" stroke-width="2.5"/>
<path d="M1356.43 121.65L1356.43 219.172" stroke="#F98282" stroke-width="2.5"/>
<path d="M1473.05 187L1472.05 219.172" stroke="#F98282" stroke-width="2.5"/>
<path d="M1465 184.989L1464 219.172" stroke="#F98282" stroke-width="2.5"/>
<path d="M1456.97 180.465V219.172" stroke="#F98282" stroke-width="2.5"/>
<path d="M1449.92 177.952L1448.92 219.172" stroke="#F98282" stroke-width="2.5"/>
<path d="M1441.88 173.93L1440.88 219.172" stroke="#F98282" stroke-width="2.5"/>
<path d="M1434.84 169.908L1433.84 219.172" stroke="#F98282" stroke-width="2.5"/>
<path d="M1426.8 165.887L1425.8 219.172" stroke="#F98282" stroke-width="2.5"/>
<path d="M1419.76 162.871L1418.76 219.172" stroke="#F98282" stroke-width="2.5"/>
<path d="M1349.39 115.618L1349.39 219.172" stroke="#F98282" stroke-width="2.5"/>
<path d="M1342.35 108.581L1341.35 219.172" stroke="#F98282" stroke-width="2.5"/>
<path d="M1334.31 101.543L1334.31 219.172" stroke="#F98282" stroke-width="2.5"/>
<path d="M1326.27 94.5054L1326.27 219.172" stroke="#F98282" stroke-width="2.5"/>
<path d="M1319.22 87.4678L1318.22 219.172" stroke="#F98282" stroke-width="2.5"/>
<path d="M1312.19 79.4243L1311.19 219.172" stroke="#F98282" stroke-width="2.5"/>
<path d="M1304.15 71.3818L1303.15 219.172" stroke="#F98282" stroke-width="2.5"/>
<path d="M1533.38 206.102L1533.38 219.172" stroke="#F98282" stroke-width="2.5"/>
<path d="M1525.33 204.091L1525.33 219.172" stroke="#F98282" stroke-width="2.5"/>
<path d="M1518.29 202.081L1518.29 219.172" stroke="#F98282" stroke-width="2.5"/>
<path d="M1510.25 200.07L1510.25 219.172" stroke="#F98282" stroke-width="2.5"/>
<path d="M1502.21 198.059L1502.21 219.172" stroke="#F98282" stroke-width="2.5"/>
<path d="M1496.17 195.043L1495.17 219.172" stroke="#F98282" stroke-width="2.5"/>
<path d="M1488.13 193.032L1487.13 219.172" stroke="#F98282" stroke-width="2.5"/>
<path d="M1481.09 190.016L1480.09 219.172" stroke="#F98282" stroke-width="2.5"/>
<path d="M343.011 4.02148C306.724 74.5642 180.721 215.952 -33 217.161" stroke="#F98282" stroke-width="5"/>
<path d="M1257.9 6.03223C1294.19 76.5749 1420.19 217.963 1633.91 219.172" stroke="#F98282" stroke-width="5"/>
<path d="M344.016 8.5459C396.463 67.8631 560.473 186.497 796.938 186.497C1033.4 186.497 1201.77 67.8631 1256.39 8.5459" stroke="#F98282" stroke-width="5"/>
<rect x="-6.85938" y="210.124" width="1608.6" height="17.0914" fill="#F98282"/>
<rect x="-6.85986" y="213.14" width="1608.6" height="11.0591" fill="#FFB8B8"/>
<rect x="290.731" y="168.903" width="101.543" height="205.097" rx="1" fill="#F98282"/>
<rect x="301.791" y="13.0698" width="79.4247" height="297.591" rx="1" fill="#F98282"/>
<rect x="297.769" y="105.564" width="88.4731" height="205.097" rx="1" fill="#F98282"/>
<rect width="40.1304" height="148.796" rx="1" transform="matrix(-1 0 0 1 362.113 0)" fill="#F98282"/>
<rect x="293.747" y="171.919" width="95.5107" height="138.742" rx="1" fill="#FFB8B8"/>
<rect x="304.806" y="16.0859" width="73.3924" height="278.489" rx="1" fill="#FFB8B8"/>
<rect x="300.785" y="108.581" width="82.4408" height="185.995" rx="1" fill="#FFB8B8"/>
<rect width="34.1828" height="143.769" rx="1" transform="matrix(-1 0 0 1 359.097 3.01611)" fill="#FFB8B8"/>
<rect x="296.764" y="174.936" width="89.4784" height="135.726" rx="1" fill="#F98282"/>
<rect x="307.823" y="19.1021" width="67.3602" height="260.392" rx="1" fill="#F98282"/>
<rect x="303.801" y="111.597" width="76.4086" height="167.898" rx="1" fill="#F98282"/>
<rect width="28.1505" height="134.72" rx="1" transform="matrix(-1 0 0 1 356.081 6.03223)" fill="#F98282"/>
<rect x="297.769" y="114.613" width="88.4731" height="11.0591" fill="#FFB8B8"/>
<rect x="300.785" y="114.613" width="82.4408" height="11.0591" fill="#F98282"/>
<rect x="303.801" y="114.613" width="76.4086" height="11.0591" fill="#FFB8B8"/>
<rect x="301.791" y="22.1182" width="79.4247" height="11.0591" fill="#FFB8B8"/>
<rect x="304.807" y="22.1182" width="73.3924" height="11.0591" fill="#F98282"/>
<rect x="307.823" y="22.1182" width="67.3602" height="11.0591" fill="#FFB8B8"/>
<rect x="290.731" y="177.952" width="101.543" height="11.0591" fill="#FFB8B8"/>
<rect x="293.748" y="177.952" width="95.5107" height="11.0591" fill="#F98282"/>
<rect x="296.764" y="177.952" width="89.4784" height="11.0591" fill="#FFB8B8"/>
<rect x="337.984" y="47.2524" width="8.043" height="53.2849" rx="1" fill="#FFF8F3"/>
<rect x="337.984" y="135.726" width="8.043" height="32.172" rx="1" fill="#FFF8F3"/>
<rect x="1203.61" y="168.903" width="101.543" height="205.097" rx="1" fill="#F98282"/>
<rect x="1214.67" y="13.0698" width="79.4247" height="297.591" rx="1" fill="#F98282"/>
<rect x="1210.65" y="105.564" width="88.4731" height="205.097" rx="1" fill="#F98282"/>
<rect width="40.1304" height="148.796" rx="1" transform="matrix(-1 0 0 1 1275 0)" fill="#F98282"/>
<rect x="1206.63" y="171.919" width="95.5107" height="138.742" rx="1" fill="#FFB8B8"/>
<rect x="1217.69" y="16.0859" width="73.3924" height="278.489" rx="1" fill="#FFB8B8"/>
<rect x="1213.67" y="108.581" width="82.4408" height="185.995" rx="1" fill="#FFB8B8"/>
<rect width="34.1828" height="143.769" rx="1" transform="matrix(-1 0 0 1 1271.98 3.01611)" fill="#FFB8B8"/>
<rect x="1209.65" y="174.936" width="89.4784" height="135.726" rx="1" fill="#F98282"/>
<rect x="1220.7" y="19.1021" width="67.3602" height="260.392" rx="1" fill="#F98282"/>
<rect x="1216.68" y="111.597" width="76.4086" height="167.898" rx="1" fill="#F98282"/>
<rect width="28.1505" height="134.72" rx="1" transform="matrix(-1 0 0 1 1268.96 6.03223)" fill="#F98282"/>
<rect x="1210.65" y="114.613" width="88.4731" height="11.0591" fill="#FFB8B8"/>
<rect x="1213.67" y="114.613" width="82.4408" height="11.0591" fill="#F98282"/>
<rect x="1216.68" y="114.613" width="76.4086" height="11.0591" fill="#FFB8B8"/>
<rect x="1214.67" y="22.1182" width="79.4247" height="11.0591" fill="#FFB8B8"/>
<rect x="1217.69" y="22.1182" width="73.3924" height="11.0591" fill="#F98282"/>
<rect x="1220.7" y="22.1182" width="67.3602" height="11.0591" fill="#FFB8B8"/>
<rect x="1203.61" y="177.952" width="101.543" height="11.0591" fill="#FFB8B8"/>
<rect x="1206.63" y="177.952" width="95.5107" height="11.0591" fill="#F98282"/>
<rect x="1209.65" y="177.952" width="89.4784" height="11.0591" fill="#FFB8B8"/>
<rect x="1250.87" y="47.2524" width="8.043" height="53.2849" rx="1" fill="#FFF8F3"/>
<rect x="1250.87" y="135.726" width="8.043" height="32.172" rx="1" fill="#FFF8F3"/>
<path d="M123.5 273.499C115.993 276.264 108.682 276.006 104.167 275.999L103.942 275.999C96.956 276.002 86.721 276.005 87.5 272.5C88.5 268 81 269.999 71.5 273.499C63.9933 276.264 56.6818 276.006 52.1671 275.999L51.9405 275.999C44.9653 276.002 35.2211 276.005 36 272.5C37 268 29 269.999 19.5 273.499C11.9 276.299 4.5 275.999 0 275.999V285H1616.5V275.999L1615.93 275.999C1608.82 276.002 1598.89 276.005 1599.69 272.5C1600.7 268 1592.55 269.999 1582.87 273.499C1575.29 276.241 1567.9 276.01 1563.29 275.999C1556.24 275.999 1546.92 275.901 1547.69 272.5C1548.7 268 1540.55 269.999 1530.87 273.499C1523.29 276.241 1515.9 276.01 1511.29 275.999C1504.24 275.999 1494.92 275.901 1495.69 272.5C1496.7 268 1488.55 269.999 1478.87 273.499C1471.22 276.265 1463.77 276.006 1459.17 275.999L1458.94 275.999C1451.97 276.002 1442.22 276.005 1443 272.5C1444 268 1436 269.999 1426.5 273.499C1418.99 276.264 1411.68 276.006 1407.17 275.999L1406.94 275.999C1399.97 276.002 1390.22 276.005 1391 272.5C1392 268 1384 269.999 1374.5 273.499C1366.99 276.264 1359.68 276.006 1355.17 275.999L1354.94 275.999C1347.97 276.002 1338.22 276.005 1339 272.5C1340 268 1332 269.999 1322.5 273.499C1314.99 276.264 1307.68 276.006 1303.17 275.999L1302.94 275.999C1295.97 276.002 1286.22 276.005 1287 272.5C1288 268 1280 269.999 1270.5 273.499C1263 276.262 1255.7 276.006 1251.18 275.999L1250.93 275.999C1243.82 276.002 1233.89 276.005 1234.69 272.5C1235.7 268 1227.55 269.999 1217.87 273.499C1210.29 276.241 1202.9 276.01 1198.29 275.999C1191.24 275.999 1181.92 275.901 1182.69 272.5C1183.7 268 1175.55 269.999 1165.87 273.499C1158.29 276.241 1150.9 276.01 1146.29 275.999C1139.24 275.999 1129.92 275.901 1130.69 272.5C1131.7 268 1123.55 269.999 1113.87 273.499C1106.29 276.241 1098.9 276.01 1094.29 275.999C1087.24 275.999 1077.92 275.901 1078.69 272.5C1079.7 268 1071.55 269.999 1061.87 273.499C1054.22 276.265 1046.77 276.006 1042.17 275.999L1041.94 275.999C1034.97 276.002 1025.22 276.005 1026 272.5C1027 268 1019 269.999 1009.5 273.499C1001.99 276.264 994.682 276.006 990.167 275.999L989.94 275.999C982.965 276.002 973.221 276.005 974 272.5C975 268 967 269.999 957.5 273.499C949.993 276.264 942.682 276.006 938.167 275.999L937.94 275.999C930.965 276.002 921.221 276.005 922 272.5C923 268 915 269.999 905.5 273.499C897.993 276.264 890.682 276.006 886.167 275.999L885.94 275.999C878.965 276.002 869.221 276.005 870 272.5C871 268 863 269.999 853.5 273.499C846 276.262 838.695 276.006 834.179 275.999L833.93 275.999C826.822 276.002 816.892 276.005 817.686 272.5C818.705 268 810.552 269.999 800.871 273.499C793.287 276.241 785.898 276.01 781.288 275.999C774.24 275.999 764.916 275.901 765.686 272.5C766.705 268 758.552 269.999 748.871 273.499C741.287 276.241 733.898 276.01 729.288 275.999C722.24 275.999 712.916 275.901 713.686 272.5C714.705 268 706.552 269.999 696.871 273.499C689.287 276.241 681.898 276.01 677.288 275.999C670.24 275.999 660.916 275.901 661.686 272.5C662.705 268 654.552 269.999 644.871 273.499C637.221 276.265 629.77 276.006 625.17 275.999L624.94 275.999C617.965 276.002 608.221 276.005 609 272.5C610 268 602 269.999 592.5 273.499C584.993 276.264 577.682 276.006 573.167 275.999L572.94 275.999C565.965 276.002 556.221 276.005 557 272.5C558 268 550 269.999 540.5 273.499C532.993 276.264 525.682 276.006 521.167 275.999L520.94 275.999C513.965 276.002 504.221 276.005 505 272.5C506 268 498 269.999 488.5 273.499C480.993 276.264 473.682 276.006 469.167 275.999L468.94 275.999C461.965 276.002 452.221 276.005 453 272.5C454 268 446 269.999 436.5 273.499C429 276.262 421.695 276.006 417.179 275.999L416.93 275.999C409.822 276.002 399.892 276.005 400.686 272.5C401.705 268 393.552 269.999 383.871 273.499C376.287 276.241 368.897 276.01 364.288 275.999C357.24 275.999 347.916 275.901 348.686 272.5C349.705 268 341.552 269.999 331.871 273.499C324.287 276.241 316.897 276.01 312.288 275.999C305.24 275.999 295.916 275.901 296.686 272.5C297.705 268 289.552 269.999 279.871 273.499C272.287 276.241 264.897 276.01 260.288 275.999C253.24 275.999 243.916 275.901 244.686 272.5C245.705 268 237.552 269.999 227.871 273.499C220.221 276.265 212.77 276.006 208.17 275.999L207.941 275.999C200.965 276.002 191.221 276.005 192 272.5C193 268 185 269.999 175.5 273.499C167.993 276.264 160.682 276.006 156.167 275.999L155.941 275.999C148.965 276.002 139.221 276.005 140 272.5C141 268 133 269.999 123.5 273.499Z" fill="#F98282"/>
</g>
</svg>
